
<svg width="481px" height="46px" viewBox="0 0 481 46" version="1.1" xmlns="http://www.w3.org/2000/svg" xmlns:xlink="http://www.w3.org/1999/xlink">
    <g id="Page-1" stroke="none" stroke-width="1" fill="none" fill-rule="evenodd">
        <g id="Homepage" transform="translate(-49.000000, -40.000000)" fill-rule="nonzero">
            <g id="ShoulderEducation" transform="translate(49.530123, 40.661500)">
                <path d="M27.081,10.089 C26.7859985,10.5610024 26.4762516,10.9149988 26.15175,11.151 C25.8272484,11.3870012 25.4093359,11.505 24.898,11.505 C24.4456644,11.505 23.9589193,11.3624181 23.43775,11.07725 C22.9165807,10.7920819 22.3265866,10.4725018 21.66775,10.1185 C21.0089134,9.76449823 20.2566709,9.44491809 19.411,9.15975 C18.5653291,8.87458191 17.6016721,8.732 16.52,8.732 C14.6516573,8.732 13.2602546,9.13024602 12.34575,9.92675 C11.4312454,10.723254 10.974,11.7999932 10.974,13.157 C10.974,14.0223377 11.2493306,14.7401638 11.8,15.3105 C12.3506694,15.8808362 13.0734122,16.3724979 13.96825,16.7855 C14.8630878,17.1985021 15.8857442,17.5770816 17.03625,17.92125 C18.1867558,18.2654184 19.3618273,18.6489146 20.5615,19.07175 C21.7611727,19.4945854 22.9362442,19.9911638 24.08675,20.5615 C25.2372558,21.1318362 26.2599122,21.8594956 27.15475,22.7445 C28.0495878,23.6295044 28.7723306,24.7062437 29.323,25.97475 C29.8736694,27.2432563 30.149,28.7723244 30.149,30.562 C30.149,32.5483433 29.8048368,34.4068247 29.1165,36.1375 C28.4281632,37.8681753 27.4300899,39.3775769 26.12225,40.66575 C24.8144101,41.9539231 23.2017596,42.9667463 21.28425,43.70425 C19.3667404,44.4417537 17.1886789,44.8105 14.75,44.8105 C13.41266,44.8105 12.0507569,44.6728347 10.66425,44.3975 C9.27774307,44.1221653 7.93550649,43.7337525 6.6375,43.23225 C5.33949351,42.7307475 4.12017237,42.1358368 2.9795,41.4475 C1.83882763,40.7591632 0.845670895,39.9921709 0,39.1465 L2.95,34.4855 C3.16633442,34.1314982 3.4711647,33.8463344 3.8645,33.63 C4.2578353,33.4136656 4.68066441,33.3055 5.133,33.3055 C5.72300295,33.3055 6.31791367,33.4923315 6.91775,33.866 C7.51758633,34.2396685 8.19607955,34.6526644 8.95325,35.105 C9.71042045,35.5573356 10.5806618,35.9703315 11.564,36.344 C12.5473383,36.7176685 13.70766,36.9045 15.045,36.9045 C16.8543424,36.9045 18.260495,36.506254 19.2635,35.70975 C20.266505,34.913246 20.768,33.6496753 20.768,31.919 C20.768,30.915995 20.4926694,30.0998365 19.942,29.4705 C19.3913306,28.8411635 18.6685878,28.3200021 17.77375,27.907 C16.8789122,27.4939979 15.8611724,27.1301682 14.7205,26.8155 C13.5798276,26.5008318 12.4096727,26.1517519 11.21,25.76825 C10.0103273,25.3847481 8.84017237,24.9127528 7.6995,24.35225 C6.55882763,23.7917472 5.54108781,23.0542546 4.64625,22.13975 C3.75141219,21.2252454 3.02866942,20.0845902 2.478,18.71775 C1.92733058,17.3509098 1.652,15.66451 1.652,13.6585 C1.652,12.0458253 1.97649675,10.4725077 2.6255,8.9385 C3.27450325,7.40449233 4.22832704,6.03767267 5.487,4.838 C6.74567296,3.63832734 8.28949086,2.67958692 10.1185,1.96175 C11.9475091,1.24391308 14.0419882,0.885 16.402,0.885 C17.7196733,0.885 19.0029104,0.988248968 20.25175,1.19475 C21.5005896,1.40125103 22.6854944,1.70608132 23.8065,2.10925 C24.9275056,2.51241868 25.9747451,2.9942472 26.94825,3.55475 C27.9217549,4.1152528 28.7919962,4.74949646 29.559,5.4575 L27.081,10.089 Z M33.253515,44.3385 L33.253515,0.177 L42.398515,0.177 L42.398515,16.4315 C43.4998538,15.4874953 44.6945919,14.7254196 45.982765,14.14525 C47.2709381,13.5650804 48.8098394,13.275 50.599515,13.275 C52.27119,13.275 53.7510919,13.5650804 55.039265,14.14525 C56.3274381,14.7254196 57.4140106,15.5317448 58.299015,16.56425 C59.1840194,17.5967552 59.8526794,18.8259095 60.305015,20.25175 C60.7573506,21.6775905 60.983515,23.226325 60.983515,24.898 L60.983515,44.3385 L51.838515,44.3385 L51.838515,24.898 C51.838515,23.4033259 51.4943518,22.2380875 50.806015,21.40225 C50.1176782,20.5664125 49.104855,20.1485 47.767515,20.1485 C46.76451,20.1485 45.8205194,20.3648312 44.935515,20.7975 C44.0505106,21.2301688 43.2048524,21.8103297 42.398515,22.538 L42.398515,44.3385 L33.253515,44.3385 Z M79.25103,13.275 C81.5717083,13.275 83.6858538,13.6388297 85.59353,14.3665 C87.5012062,15.0941703 89.1384398,16.1364932 90.50528,17.4935 C91.8721202,18.8505068 92.9341095,20.4975736 93.69128,22.43475 C94.4484505,24.3719264 94.82703,26.5499879 94.82703,28.969 C94.82703,31.4076789 94.4484505,33.6054069 93.69128,35.56225 C92.9341095,37.5190931 91.8721202,39.1809098 90.50528,40.54775 C89.1384398,41.9145902 87.5012062,42.9667463 85.59353,43.70425 C83.6858538,44.4417537 81.5717083,44.8105 79.25103,44.8105 C76.910685,44.8105 74.7817896,44.4417537 72.86428,43.70425 C70.9467704,42.9667463 69.2947869,41.9145902 67.90828,40.54775 C66.5217731,39.1809098 65.4499505,37.5190931 64.69278,35.56225 C63.9356095,33.6054069 63.55703,31.4076789 63.55703,28.969 C63.55703,26.5499879 63.9356095,24.3719264 64.69278,22.43475 C65.4499505,20.4975736 66.5217731,18.8505068 67.90828,17.4935 C69.2947869,16.1364932 70.9467704,15.0941703 72.86428,14.3665 C74.7817896,13.6388297 76.910685,13.275 79.25103,13.275 Z M79.25103,38.0255 C81.3553739,38.0255 82.9041084,37.2830908 83.89728,35.79825 C84.8904516,34.3134092 85.38703,32.0566818 85.38703,29.028 C85.38703,25.9993182 84.8904516,23.7475074 83.89728,22.2725 C82.9041084,20.7974926 81.3553739,20.06 79.25103,20.06 C77.0876858,20.06 75.504535,20.7974926 74.50153,22.2725 C73.498525,23.7475074 72.99703,25.9993182 72.99703,29.028 C72.99703,32.0566818 73.498525,34.3134092 74.50153,35.79825 C75.504535,37.2830908 77.0876858,38.0255 79.25103,38.0255 Z M106.545545,13.747 L106.545545,33.158 C106.545545,34.6723409 106.889708,35.8424959 107.578045,36.6685 C108.266382,37.4945041 109.279205,37.9075 110.616545,37.9075 C111.61955,37.9075 112.558624,37.7010021 113.433795,37.288 C114.308966,36.8749979 115.159541,36.2948371 115.985545,35.5475 L115.985545,13.747 L125.130545,13.747 L125.130545,44.3385 L119.466545,44.3385 C118.325873,44.3385 117.578547,43.8271718 117.224545,42.8045 L116.664045,41.0345 C116.074042,41.6048362 115.464381,42.121081 114.835045,42.58325 C114.205709,43.045419 113.532132,43.4387484 112.814295,43.76325 C112.096458,44.0877516 111.324549,44.3434157 110.498545,44.53025 C109.672541,44.7170843 108.767883,44.8105 107.784545,44.8105 C106.11287,44.8105 104.632968,44.5204196 103.344795,43.94025 C102.056622,43.3600804 100.970049,42.5488385 100.085045,41.5065 C99.2000406,40.4641615 98.5313806,39.2350071 98.079045,37.819 C97.6267094,36.4029929 97.400545,34.8493418 97.400545,33.158 L97.400545,13.747 L106.545545,13.747 Z M139.79906,0.177 L139.79906,44.3385 L130.65406,44.3385 L130.65406,0.177 L139.79906,0.177 Z M166.798575,44.3385 C166.228239,44.3385 165.751327,44.2106679 165.367825,43.955 C164.984323,43.6993321 164.713909,43.3158359 164.556575,42.8045 L163.848575,40.474 C163.238905,41.1230032 162.599745,41.7129973 161.931075,42.244 C161.262405,42.7750027 160.539662,43.2322481 159.762825,43.61575 C158.985988,43.9992519 158.150163,44.294249 157.255325,44.50075 C156.360487,44.707251 155.391914,44.8105 154.349575,44.8105 C152.756567,44.8105 151.281582,44.4565035 149.924575,43.7485 C148.567568,43.0404965 147.397413,42.01784 146.414075,40.6805 C145.430737,39.34316 144.658828,37.7059264 144.098325,35.76875 C143.537822,33.8315736 143.257575,31.6240124 143.257575,29.146 C143.257575,26.8646553 143.572239,24.7455931 144.201575,22.78875 C144.830911,20.8319069 145.720819,19.1405905 146.871325,17.71475 C148.021831,16.2889095 149.4034,15.1728374 151.016075,14.3665 C152.62875,13.5601626 154.408565,13.157 156.355575,13.157 C157.928916,13.157 159.26132,13.388081 160.352825,13.85025 C161.44433,14.312419 162.432571,14.9171629 163.317575,15.6645 L163.317575,0.177 L172.462575,0.177 L172.462575,44.3385 L166.798575,44.3385 Z M157.535575,37.7895 C158.204245,37.7895 158.808989,37.725584 159.349825,37.59775 C159.890661,37.469916 160.387239,37.2880012 160.839575,37.052 C161.291911,36.8159988 161.719656,36.5210018 162.122825,36.167 C162.525994,35.8129982 162.92424,35.4000024 163.317575,34.928 L163.317575,21.948 C162.609571,21.1809962 161.857329,20.6450849 161.060825,20.34025 C160.264321,20.0354151 159.423579,19.883 158.538575,19.883 C157.692904,19.883 156.916079,20.050165 156.208075,20.3845 C155.500071,20.718835 154.885494,21.2547463 154.364325,21.99225 C153.843156,22.7297537 153.435076,23.6884941 153.140075,24.8685 C152.845074,26.0485059 152.697575,27.474325 152.697575,29.146 C152.697575,30.7586747 152.815574,32.1156612 153.051575,33.217 C153.287576,34.3183388 153.61699,35.2082466 154.039825,35.88675 C154.46266,36.5652534 154.969072,37.0519985 155.559075,37.347 C156.149078,37.6420015 156.807905,37.7895 157.535575,37.7895 Z M190.78909,13.275 C192.814767,13.275 194.668332,13.5896635 196.34984,14.219 C198.031348,14.8483365 199.476834,15.7628273 200.68634,16.9625 C201.895846,18.1621727 202.839837,19.6322413 203.51834,21.37275 C204.196843,23.1132587 204.53609,25.0848223 204.53609,27.2875 C204.53609,27.9758368 204.50659,28.5363312 204.44759,28.969 C204.38859,29.4016688 204.280424,29.7458321 204.12309,30.0015 C203.965756,30.2571679 203.754341,30.4341662 203.48884,30.5325 C203.223339,30.6308338 202.884092,30.68 202.47109,30.68 L184.83009,30.68 C185.125091,33.2366795 185.901917,35.0902442 187.16059,36.24075 C188.419263,37.3912558 190.041747,37.9665 192.02809,37.9665 C193.090095,37.9665 194.004586,37.8386679 194.77159,37.583 C195.538594,37.3273321 196.222004,37.0421682 196.82184,36.7275 C197.421676,36.4128318 197.972337,36.1276679 198.47384,35.872 C198.975343,35.6163321 199.501421,35.4885 200.05209,35.4885 C200.77976,35.4885 201.330421,35.7539973 201.70409,36.285 L204.35909,39.5595 C203.415085,40.6411721 202.397345,41.5212466 201.30584,42.19975 C200.214335,42.8782534 199.093346,43.4092481 197.94284,43.79275 C196.792334,44.1762519 195.641846,44.4417493 194.49134,44.58925 C193.340834,44.7367507 192.244429,44.8105 191.20209,44.8105 C189.058413,44.8105 187.047516,44.4614202 185.16934,43.76325 C183.291164,43.0650798 181.649014,42.0276736 180.24284,40.651 C178.836666,39.2743265 177.725511,37.5633436 176.90934,35.518 C176.093169,33.4726564 175.68509,31.0930136 175.68509,28.379 C175.68509,26.3336564 176.03417,24.3965091 176.73234,22.5675 C177.43051,20.7384909 178.4335,19.1356736 179.74134,17.759 C181.04918,16.3823265 182.632331,15.2908374 184.49084,14.4845 C186.349349,13.6781626 188.448745,13.275 190.78909,13.275 Z M190.96609,19.588 C189.215748,19.588 187.848928,20.0845784 186.86559,21.07775 C185.882252,22.0709216 185.233258,23.5016573 184.91859,25.37 L196.33509,25.37 C196.33509,24.6423297 196.241674,23.9343368 196.05484,23.246 C195.868006,22.5576632 195.563175,21.943086 195.14034,21.40225 C194.717505,20.861414 194.161927,20.423835 193.47359,20.0895 C192.785253,19.755165 191.949428,19.588 190.96609,19.588 Z M207.935605,44.3385 L207.935605,13.747 L213.363605,13.747 C213.815941,13.747 214.19452,13.7863329 214.499355,13.865 C214.80419,13.9436671 215.059854,14.0665825 215.266355,14.23375 C215.472856,14.4009175 215.630188,14.6221653 215.738355,14.8975 C215.846522,15.1728347 215.939938,15.5071647 216.018605,15.9005 L216.520105,18.762 C217.641111,17.0313247 218.899765,15.664505 220.296105,14.6615 C221.692445,13.658495 223.216597,13.157 224.868605,13.157 C226.264945,13.157 227.385934,13.49133 228.231605,14.16 L227.051605,20.886 C226.972938,21.2990021 226.815606,21.5890825 226.579605,21.75625 C226.343604,21.9234175 226.02894,22.007 225.635605,22.007 C225.30127,22.007 224.907941,21.9627504 224.455605,21.87425 C224.003269,21.7857496 223.432942,21.7415 222.744605,21.7415 C220.34526,21.7415 218.457279,23.0198206 217.080605,25.5765 L217.080605,44.3385 L207.935605,44.3385 Z" id="Shoulder" fill="#000000"></path>
                <path d="M258.12212,1.357 L258.12212,9.027 L240.48112,9.027 L240.48112,19.057 L253.99212,19.057 L253.99212,26.432 L240.48112,26.432 L240.48112,36.6685 L258.12212,36.6685 L258.12212,44.3385 L230.45112,44.3385 L230.45112,1.357 L258.12212,1.357 Z M283.410635,44.3385 C282.840299,44.3385 282.363387,44.2106679 281.979885,43.955 C281.596383,43.6993321 281.325969,43.3158359 281.168635,42.8045 L280.460635,40.474 C279.850965,41.1230032 279.211805,41.7129973 278.543135,42.244 C277.874465,42.7750027 277.151722,43.2322481 276.374885,43.61575 C275.598048,43.9992519 274.762223,44.294249 273.867385,44.50075 C272.972547,44.707251 272.003974,44.8105 270.961635,44.8105 C269.368627,44.8105 267.893642,44.4565035 266.536635,43.7485 C265.179628,43.0404965 264.009473,42.01784 263.026135,40.6805 C262.042797,39.34316 261.270888,37.7059264 260.710385,35.76875 C260.149882,33.8315736 259.869635,31.6240124 259.869635,29.146 C259.869635,26.8646553 260.184299,24.7455931 260.813635,22.78875 C261.442971,20.8319069 262.332879,19.1405905 263.483385,17.71475 C264.633891,16.2889095 266.01546,15.1728374 267.628135,14.3665 C269.24081,13.5601626 271.020625,13.157 272.967635,13.157 C274.540976,13.157 275.87338,13.388081 276.964885,13.85025 C278.05639,14.312419 279.044631,14.9171629 279.929635,15.6645 L279.929635,0.177 L289.074635,0.177 L289.074635,44.3385 L283.410635,44.3385 Z M274.147635,37.7895 C274.816305,37.7895 275.421049,37.725584 275.961885,37.59775 C276.502721,37.469916 276.999299,37.2880012 277.451635,37.052 C277.903971,36.8159988 278.331716,36.5210018 278.734885,36.167 C279.138054,35.8129982 279.5363,35.4000024 279.929635,34.928 L279.929635,21.948 C279.221631,21.1809962 278.469389,20.6450849 277.672885,20.34025 C276.876381,20.0354151 276.035639,19.883 275.150635,19.883 C274.304964,19.883 273.528139,20.050165 272.820135,20.3845 C272.112131,20.718835 271.497554,21.2547463 270.976385,21.99225 C270.455216,22.7297537 270.047136,23.6884941 269.752135,24.8685 C269.457134,26.0485059 269.309635,27.474325 269.309635,29.146 C269.309635,30.7586747 269.427634,32.1156612 269.663635,33.217 C269.899636,34.3183388 270.22905,35.2082466 270.651885,35.88675 C271.07472,36.5652534 271.581132,37.0519985 272.171135,37.347 C272.761138,37.6420015 273.419965,37.7895 274.147635,37.7895 Z M302.85815,13.747 L302.85815,33.158 C302.85815,34.6723409 303.202313,35.8424959 303.89065,36.6685 C304.578987,37.4945041 305.59181,37.9075 306.92915,37.9075 C307.932155,37.9075 308.871229,37.7010021 309.7464,37.288 C310.621571,36.8749979 311.472146,36.2948371 312.29815,35.5475 L312.29815,13.747 L321.44315,13.747 L321.44315,44.3385 L315.77915,44.3385 C314.638478,44.3385 313.891152,43.8271718 313.53715,42.8045 L312.97665,41.0345 C312.386647,41.6048362 311.776986,42.121081 311.14765,42.58325 C310.518314,43.045419 309.844737,43.4387484 309.1269,43.76325 C308.409063,44.0877516 307.637154,44.3434157 306.81115,44.53025 C305.985146,44.7170843 305.080488,44.8105 304.09715,44.8105 C302.425475,44.8105 300.945573,44.5204196 299.6574,43.94025 C298.369227,43.3600804 297.282654,42.5488385 296.39765,41.5065 C295.512646,40.4641615 294.843986,39.2350071 294.39165,37.819 C293.939314,36.4029929 293.71315,34.8493418 293.71315,33.158 L293.71315,13.747 L302.85815,13.747 Z M348.737665,21.004 C348.46233,21.338335 348.196833,21.6038324 347.941165,21.8005 C347.685497,21.9971677 347.321667,22.0955 346.849665,22.0955 C346.397329,22.0955 345.98925,21.9873344 345.625415,21.771 C345.26158,21.5546656 344.853501,21.3137513 344.401165,21.04825 C343.948829,20.7827487 343.417835,20.5418344 342.808165,20.3255 C342.198495,20.1091656 341.441336,20.001 340.536665,20.001 C339.415659,20.001 338.447086,20.2074979 337.630915,20.6205 C336.814744,21.0335021 336.141168,21.6234962 335.610165,22.3905 C335.079162,23.1575038 334.685833,24.0965778 334.430165,25.20775 C334.174497,26.3189222 334.046665,27.5726597 334.046665,28.969 C334.046665,31.899348 334.612076,34.1511588 335.742915,35.7245 C336.873754,37.2978412 338.432322,38.0845 340.418665,38.0845 C341.48067,38.0845 342.321412,37.9517513 342.940915,37.68625 C343.560418,37.4207487 344.086496,37.1257516 344.519165,36.80125 C344.951834,36.4767484 345.35008,36.1768347 345.713915,35.9015 C346.07775,35.6261653 346.534996,35.4885 347.085665,35.4885 C347.813335,35.4885 348.363996,35.7539973 348.737665,36.285 L351.392665,39.5595 C350.44866,40.6411721 349.455504,41.5212466 348.413165,42.19975 C347.370826,42.8782534 346.30392,43.4092481 345.212415,43.79275 C344.12091,44.1762519 343.024504,44.4417493 341.923165,44.58925 C340.821826,44.7367507 339.750004,44.8105 338.707665,44.8105 C336.839322,44.8105 335.05459,44.4565035 333.353415,43.7485 C331.65224,43.0404965 330.157588,42.0129234 328.869415,40.66575 C327.581242,39.3185766 326.558585,37.6616765 325.801415,35.695 C325.044245,33.7283235 324.665665,31.4863459 324.665665,28.969 C324.665665,26.7663223 324.995078,24.7062596 325.653915,22.78875 C326.312752,20.8712404 327.286242,19.2094237 328.574415,17.80325 C329.862588,16.3970763 331.455572,15.2908374 333.353415,14.4845 C335.251258,13.6781626 337.448986,13.275 339.946665,13.275 C342.34601,13.275 344.450323,13.6584962 346.259665,14.4255 C348.069007,15.1925038 349.701324,16.3134926 351.156665,17.7885 L348.737665,21.004 Z M374.61618,44.3385 C373.750842,44.3385 373.096932,44.2205012 372.65443,43.9845 C372.211928,43.7484988 371.843181,43.2568371 371.54818,42.5095 L370.89918,40.828 C370.132176,41.4770032 369.394684,42.0473309 368.68668,42.539 C367.978676,43.0306691 367.2461,43.4485816 366.48893,43.79275 C365.73176,44.1369184 364.925434,44.3925825 364.06993,44.55975 C363.214426,44.7269175 362.265519,44.8105 361.22318,44.8105 C359.82684,44.8105 358.558352,44.6285852 357.41768,44.26475 C356.277008,43.9009148 355.308434,43.3650035 354.51193,42.657 C353.715426,41.9489965 353.100849,41.0689219 352.66818,40.01675 C352.235511,38.9645781 352.01918,37.7501736 352.01918,36.3735 C352.01918,35.2918279 352.294511,34.1806724 352.84518,33.04 C353.395849,31.8993276 354.349673,30.8619213 355.70668,29.92775 C357.063687,28.9935787 358.892668,28.2118365 361.19368,27.5825 C363.494692,26.9531635 366.395496,26.5991671 369.89618,26.5205 L369.89618,25.2225 C369.89618,23.4328244 369.527434,22.139754 368.78993,21.34325 C368.052426,20.546746 367.005187,20.1485 365.64818,20.1485 C364.566508,20.1485 363.681517,20.2664988 362.99318,20.5025 C362.304843,20.7385012 361.690266,21.0039985 361.14943,21.299 C360.608594,21.5940015 360.082516,21.8594988 359.57118,22.0955 C359.059844,22.3315012 358.450184,22.4495 357.74218,22.4495 C357.112844,22.4495 356.576932,22.2970849 356.13443,21.99225 C355.691928,21.6874151 355.342848,21.3088356 355.08718,20.8565 L353.43518,17.995 C355.283856,16.3626585 357.334085,15.148254 359.58593,14.35175 C361.837775,13.555246 364.251834,13.157 366.82818,13.157 C368.676856,13.157 370.343589,13.4569137 371.82843,14.05675 C373.313271,14.6565863 374.571925,15.4924113 375.60443,16.56425 C376.636935,17.6360887 377.428511,18.9094926 377.97918,20.3845 C378.529849,21.8595074 378.80518,23.4721579 378.80518,25.2225 L378.80518,44.3385 L374.61618,44.3385 Z M364.11418,38.763 C365.294186,38.763 366.326676,38.5565021 367.21168,38.1435 C368.096684,37.7304979 368.991509,37.061838 369.89618,36.1375 L369.89618,31.8895 C368.067171,31.9681671 366.562686,32.1254988 365.38268,32.3615 C364.202674,32.5975012 363.268517,32.8924982 362.58018,33.2465 C361.891843,33.6005018 361.414931,34.0036644 361.14943,34.456 C360.883929,34.9083356 360.75118,35.3999973 360.75118,35.931 C360.75118,36.9733385 361.036344,37.7059146 361.60668,38.12875 C362.177016,38.5515854 363.012841,38.763 364.11418,38.763 Z M394.181695,44.8105 C392.726354,44.8105 391.443117,44.5990854 390.331945,44.17625 C389.220773,43.7534146 388.286615,43.1535872 387.529445,42.37675 C386.772275,41.5999128 386.19703,40.6608388 385.803695,39.5595 C385.41036,38.4581612 385.213695,37.2290068 385.213695,35.872 L385.213695,20.06 L382.617695,20.06 C382.145693,20.06 381.74253,19.9075849 381.408195,19.60275 C381.07386,19.2979151 380.906695,18.850503 380.906695,18.2605 L380.906695,14.691 L385.774195,13.747 L387.573695,6.2835 C387.809696,5.33949528 388.478356,4.8675 389.579695,4.8675 L394.358695,4.8675 L394.358695,13.806 L401.792695,13.806 L401.792695,20.06 L394.358695,20.06 L394.358695,35.2525 C394.358695,35.9605035 394.530777,36.545581 394.874945,37.00775 C395.219113,37.469919 395.715692,37.701 396.364695,37.701 C396.69903,37.701 396.979277,37.6665837 397.205445,37.59775 C397.431613,37.5289163 397.628277,37.4502504 397.795445,37.36175 C397.962613,37.2732496 398.119944,37.1945837 398.267445,37.12575 C398.414946,37.0569163 398.587027,37.0225 398.783695,37.0225 C399.05903,37.0225 399.280277,37.086416 399.447445,37.21425 C399.614613,37.342084 399.786694,37.5436653 399.963695,37.819 L402.736695,42.1555 C401.556689,43.0405044 400.229202,43.7042478 398.754195,44.14675 C397.279188,44.5892522 395.755036,44.8105 394.181695,44.8105 Z M414.63221,13.747 L414.63221,44.3385 L405.48721,44.3385 L405.48721,13.747 L414.63221,13.747 Z M415.69421,5.369 C415.69421,6.09667031 415.546711,6.78008014 415.25171,7.41925 C414.956709,8.05841986 414.553546,8.61891426 414.04221,9.10075 C413.530874,9.58258574 412.935963,9.96608191 412.25746,10.25125 C411.578957,10.5364181 410.856214,10.679 410.08921,10.679 C409.341873,10.679 408.643713,10.5364181 407.99471,10.25125 C407.345707,9.96608191 406.770463,9.58258574 406.26896,9.10075 C405.767457,8.61891426 405.374128,8.05841986 405.08896,7.41925 C404.803792,6.78008014 404.66121,6.09667031 404.66121,5.369 C404.66121,4.62166293 404.803792,3.92350325 405.08896,3.2745 C405.374128,2.62549676 405.767457,2.05516913 406.26896,1.5635 C406.770463,1.07183088 407.345707,0.68833471 407.99471,0.413 C408.643713,0.13766529 409.341873,1.77635684e-14 410.08921,1.77635684e-14 C410.856214,1.77635684e-14 411.578957,0.13766529 412.25746,0.413 C412.935963,0.68833471 413.530874,1.07183088 414.04221,1.5635 C414.553546,2.05516913 414.956709,2.62549676 415.25171,3.2745 C415.546711,3.92350325 415.69421,4.62166293 415.69421,5.369 Z M433.784725,13.275 C436.105403,13.275 438.219549,13.6388297 440.127225,14.3665 C442.034901,15.0941703 443.672135,16.1364932 445.038975,17.4935 C446.405815,18.8505068 447.467805,20.4975736 448.224975,22.43475 C448.982145,24.3719264 449.360725,26.5499879 449.360725,28.969 C449.360725,31.4076789 448.982145,33.6054069 448.224975,35.56225 C447.467805,37.5190931 446.405815,39.1809098 445.038975,40.54775 C443.672135,41.9145902 442.034901,42.9667463 440.127225,43.70425 C438.219549,44.4417537 436.105403,44.8105 433.784725,44.8105 C431.44438,44.8105 429.315485,44.4417537 427.397975,43.70425 C425.480465,42.9667463 423.828482,41.9145902 422.441975,40.54775 C421.055468,39.1809098 419.983645,37.5190931 419.226475,35.56225 C418.469305,33.6054069 418.090725,31.4076789 418.090725,28.969 C418.090725,26.5499879 418.469305,24.3719264 419.226475,22.43475 C419.983645,20.4975736 421.055468,18.8505068 422.441975,17.4935 C423.828482,16.1364932 425.480465,15.0941703 427.397975,14.3665 C429.315485,13.6388297 431.44438,13.275 433.784725,13.275 Z M433.784725,38.0255 C435.889069,38.0255 437.437803,37.2830908 438.430975,35.79825 C439.424147,34.3134092 439.920725,32.0566818 439.920725,29.028 C439.920725,25.9993182 439.424147,23.7475074 438.430975,22.2725 C437.437803,20.7974926 435.889069,20.06 433.784725,20.06 C431.621381,20.06 430.03823,20.7974926 429.035225,22.2725 C428.03222,23.7475074 427.530725,25.9993182 427.530725,29.028 C427.530725,32.0566818 428.03222,34.3134092 429.035225,35.79825 C430.03823,37.2830908 431.621381,38.0255 433.784725,38.0255 Z M452.52424,44.3385 L452.52424,13.747 L458.18824,13.747 C458.758576,13.747 459.235488,13.8748321 459.61899,14.1305 C460.002492,14.3861679 460.272906,14.7696641 460.43024,15.281 L460.96124,17.051 C461.551243,16.5003306 462.160904,15.9890024 462.79024,15.517 C463.419576,15.0449976 464.093153,14.6467516 464.81099,14.32225 C465.528827,13.9977484 466.305652,13.7420843 467.14149,13.55525 C467.977328,13.3684157 468.886902,13.275 469.87024,13.275 C471.541915,13.275 473.021817,13.5650804 474.30999,14.14525 C475.598163,14.7254196 476.684736,15.5317448 477.56974,16.56425 C478.454744,17.5967552 479.123404,18.8259095 479.57574,20.25175 C480.028076,21.6775905 480.25424,23.226325 480.25424,24.898 L480.25424,44.3385 L471.10924,44.3385 L471.10924,24.898 C471.10924,23.4033259 470.765077,22.2380875 470.07674,21.40225 C469.388403,20.5664125 468.37558,20.1485 467.03824,20.1485 C466.035235,20.1485 465.091244,20.3648312 464.20624,20.7975 C463.321236,21.2301688 462.475577,21.8103297 461.66924,22.538 L461.66924,44.3385 L452.52424,44.3385 Z" id="Education" fill="#1E88E5"></path>
            </g>
        </g>
    </g>
</svg>