
<svg width="23px" height="23px" viewBox="0 0 23 23" version="1.1" xmlns="http://www.w3.org/2000/svg" xmlns:xlink="http://www.w3.org/1999/xlink">
    <g id="Page-1" stroke="none" stroke-width="1" fill="none" fill-rule="evenodd" opacity="0.739443824">
        <g id="Homepage" transform="translate(-1375.000000, -11.000000)" fill="#000000" fill-rule="nonzero">
            <g id="Search" transform="translate(1236.000000, 11.000000)">
                <g id="search-solid" transform="translate(139.000000, 0.000000)">
                    <path d="M22.6872063,19.8849722 L18.2081678,15.4066986 C18.0060045,15.2045699 17.7319611,15.0922761 17.44444,15.0922761 L16.7121599,15.0922761 C17.9520943,13.5066888 18.688867,11.5123523 18.688867,9.34283761 C18.688867,4.18181818 14.5063345,0 9.34443349,0 C4.18253249,0 0,4.18181818 0,9.34283761 C0,14.503857 4.18253249,18.6856752 9.34443349,18.6856752 C11.5143188,18.6856752 13.5089959,17.9490284 15.0948541,16.7093057 L15.0948541,17.4414608 C15.0948541,17.7289327 15.207167,18.0029294 15.4093302,18.2050581 L19.8883688,22.6833317 C20.3106653,23.1055561 20.9935277,23.1055561 21.4113317,22.6833317 L22.6827138,21.4121668 C23.1050103,20.9899424 23.1050103,20.3071966 22.6872063,19.8849722 Z M9.34443349,15.0922761 C6.16822461,15.0922761 3.59401288,12.5229958 3.59401288,9.34283761 C3.59401288,6.16717117 6.16373209,3.59339908 9.34443349,3.59339908 C12.5206424,3.59339908 15.0948541,6.16267943 15.0948541,9.34283761 C15.0948541,12.5185041 12.5251349,15.0922761 9.34443349,15.0922761 Z" id="Shape"></path>
                </g>
            </g>
        </g>
    </g>
</svg>