
<svg width="300px" height="30px" viewBox="0 0 300 30" version="1.1" xmlns="http://www.w3.org/2000/svg" xmlns:xlink="http://www.w3.org/1999/xlink">
    <defs>
        <path d="M17.442,6.498 C17.251999,6.80200152 17.052501,7.02999924 16.8435,7.182 C16.634499,7.33400076 16.365335,7.41 16.036,7.41 C15.7446652,7.41 15.4311683,7.31816758 15.0955,7.1345 C14.7598317,6.95083241 14.3798355,6.74500114 13.9555,6.517 C13.5311645,6.28899886 13.0466694,6.08316758 12.502,5.8995 C11.9573306,5.71583241 11.3366702,5.624 10.64,5.624 C9.43666065,5.624 8.54050294,5.88049743 7.9515,6.3935 C7.36249706,6.90650256 7.068,7.59999563 7.068,8.474 C7.068,9.03133612 7.24533156,9.49366483 7.6,9.861 C7.95466844,10.2283352 8.42016378,10.5449987 8.9965,10.811 C9.57283621,11.0770013 10.2314963,11.3208322 10.9725,11.5425 C11.7135037,11.7641678 12.4703295,12.0111653 13.243,12.2835 C14.0156705,12.5558347 14.7724963,12.8756648 15.5135,13.243 C16.2545037,13.6103352 16.9131638,14.0789971 17.4895,14.649 C18.0658362,15.2190028 18.5313316,15.9124959 18.886,16.7295 C19.2406684,17.5465041 19.418,18.5313276 19.418,19.684 C19.418,20.9633397 19.1963356,22.1603278 18.753,23.275 C18.3096644,24.3896722 17.6668375,25.3618292 16.8245,26.1915 C15.9821625,27.0211708 14.9435062,27.6734976 13.7085,28.1485 C12.4734938,28.6235024 11.0706745,28.861 9.5,28.861 C8.63866236,28.861 7.76150446,28.7723342 6.8685,28.595 C5.97549554,28.4176658 5.11100418,28.1675016 4.275,27.8445 C3.43899582,27.5214984 2.65367034,27.1383355 1.919,26.695 C1.18432966,26.2516644 0.54466939,25.7576694 0,25.213 L1.9,22.211 C2.03933403,21.9829989 2.2356654,21.799334 2.489,21.66 C2.7423346,21.520666 3.01466521,21.451 3.306,21.451 C3.6860019,21.451 4.06916473,21.5713321 4.4555,21.812 C4.84183527,22.0526679 5.2788309,22.3186652 5.7665,22.61 C6.2541691,22.9013348 6.8146635,23.1673321 7.448,23.408 C8.0813365,23.6486679 8.82866236,23.769 9.69,23.769 C10.8553392,23.769 11.7609968,23.5125026 12.407,22.9995 C13.0530032,22.4864974 13.376,21.6726722 13.376,20.558 C13.376,19.9119968 13.1986684,19.3863354 12.844,18.981 C12.4893316,18.5756646 12.0238362,18.2400013 11.4475,17.974 C10.8711638,17.7079987 10.2156703,17.4736677 9.481,17.271 C8.74632966,17.0683323 7.99267053,16.8435012 7.22,16.5965 C6.44732947,16.3494988 5.69367034,16.0455018 4.959,15.6845 C4.22432966,15.3234982 3.56883622,14.8485029 2.9925,14.2595 C2.41616379,13.6704971 1.95066844,12.9358377 1.596,12.0555 C1.24133156,11.1751623 1.064,10.0890065 1.064,8.797 C1.064,7.75832814 1.27299791,6.74500494 1.691,5.757 C2.10900209,4.76899506 2.72332928,3.88867053 3.534,3.116 C4.34467072,2.34332947 5.33899411,1.72583564 6.517,1.2635 C7.69500589,0.801164355 9.0439924,0.57 10.564,0.57 C11.4126709,0.57 12.2391626,0.636499335 13.0435,0.7695 C13.8478374,0.902500665 14.6109964,1.09883203 15.333,1.3585 C16.0550036,1.61816796 16.7294969,1.92849819 17.3565,2.2895 C17.9835031,2.6505018 18.5439975,3.05899772 19.038,3.515 L17.442,6.498 Z M20.758515,28.557 L20.758515,0.114 L26.648515,0.114 L26.648515,10.583 C27.3578519,9.97499696 28.1273442,9.48416853 28.957015,9.1105 C29.7866858,8.73683146 30.7778426,8.55 31.930515,8.55 C33.0071871,8.55 33.9603442,8.73683146 34.790015,9.1105 C35.6196858,9.48416853 36.3195122,10.0034967 36.889515,10.6685 C37.4595178,11.3335033 37.8901802,12.1251621 38.181515,13.0435 C38.4728498,13.9618379 38.618515,14.9593279 38.618515,16.036 L38.618515,28.557 L32.728515,28.557 L32.728515,16.036 C32.728515,15.0733285 32.5068506,14.322836 32.063515,13.7845 C31.6201795,13.246164 30.9678526,12.977 30.106515,12.977 C29.4605118,12.977 28.8525179,13.1163319 28.282515,13.395 C27.7125122,13.6736681 27.1678509,14.047331 26.648515,14.516 L26.648515,28.557 L20.758515,28.557 Z M49.72503,8.55 C51.2197041,8.55 52.5813572,8.78433099 53.81003,9.253 C55.0387028,9.72166901 56.0931923,10.3929956 56.97353,11.267 C57.8538677,12.1410044 58.5378609,13.2018271 59.02553,14.4495 C59.5131991,15.6971729 59.75703,17.0999922 59.75703,18.658 C59.75703,20.2286745 59.5131991,21.6441604 59.02553,22.9045 C58.5378609,24.1648396 57.8538677,25.2351623 56.97353,26.1155 C56.0931923,26.9958377 55.0387028,27.6734976 53.81003,28.1485 C52.5813572,28.6235024 51.2197041,28.861 49.72503,28.861 C48.2176891,28.861 46.8465362,28.6235024 45.61153,28.1485 C44.3765238,27.6734976 43.3125345,26.9958377 42.41953,26.1155 C41.5265255,25.2351623 40.8361991,24.1648396 40.34853,22.9045 C39.8608609,21.6441604 39.61703,20.2286745 39.61703,18.658 C39.61703,17.0999922 39.8608609,15.6971729 40.34853,14.4495 C40.8361991,13.2018271 41.5265255,12.1410044 42.41953,11.267 C43.3125345,10.3929956 44.3765238,9.72166901 45.61153,9.253 C46.8465362,8.78433099 48.2176891,8.55 49.72503,8.55 Z M49.72503,24.491 C51.0803701,24.491 52.0778601,24.0128381 52.71753,23.0565 C53.3571999,22.1001619 53.67703,20.6466764 53.67703,18.696 C53.67703,16.7453236 53.3571999,15.2950047 52.71753,14.345 C52.0778601,13.3949952 51.0803701,12.92 49.72503,12.92 C48.3316897,12.92 47.3120332,13.3949952 46.66603,14.345 C46.0200268,15.2950047 45.69703,16.7453236 45.69703,18.696 C45.69703,20.6466764 46.0200268,22.1001619 46.66603,23.0565 C47.3120332,24.0128381 48.3316897,24.491 49.72503,24.491 Z M66.645545,8.854 L66.645545,21.356 C66.645545,22.3313382 66.8672095,23.0849973 67.310545,23.617 C67.7538805,24.1490027 68.4062074,24.415 69.267545,24.415 C69.9135482,24.415 70.5183755,24.2820013 71.082045,24.016 C71.6457145,23.7499987 72.1935423,23.3763357 72.725545,22.895 L72.725545,8.854 L78.615545,8.854 L78.615545,28.557 L74.967545,28.557 C74.2328747,28.557 73.7515461,28.22767 73.523545,27.569 L73.162545,26.429 C72.7825431,26.7963352 72.3898804,27.1288318 71.984545,27.4265 C71.5792096,27.7241682 71.1453806,27.977499 70.683045,28.1865 C70.2207094,28.395501 69.7235477,28.5601661 69.191545,28.6805 C68.6595423,28.8008339 68.0768815,28.861 67.443545,28.861 C66.3668729,28.861 65.4137158,28.6741685 64.584045,28.3005 C63.7543742,27.9268315 63.0545478,27.4043367 62.484545,26.733 C61.9145421,26.0616633 61.4838798,25.2700046 61.192545,24.358 C60.9012102,23.4459954 60.755545,22.4453388 60.755545,21.356 L60.755545,8.854 L66.645545,8.854 Z M87.40406,0.114 L87.40406,28.557 L81.51406,28.557 L81.51406,0.114 L87.40406,0.114 Z M104.134575,28.557 C103.76724,28.557 103.460076,28.4746675 103.213075,28.31 C102.966074,28.1453325 102.791909,27.898335 102.690575,27.569 L102.234575,26.068 C101.841906,26.4860021 101.430244,26.8659983 100.999575,27.208 C100.568906,27.5500017 100.103411,27.8444988 99.603075,28.0915 C99.1027392,28.3385012 98.5644112,28.5284993 97.988075,28.6615 C97.4117388,28.7945007 96.7879117,28.861 96.116575,28.861 C95.0905699,28.861 94.1405794,28.6330023 93.266575,28.177 C92.3925706,27.7209977 91.6389115,27.0623376 91.005575,26.201 C90.3722385,25.3396624 89.8750768,24.2851729 89.514075,23.0375 C89.1530732,21.7898271 88.972575,20.368008 88.972575,18.772 C88.972575,17.3026593 89.1752396,15.9378396 89.580575,14.6775 C89.9859104,13.4171604 90.5590713,12.3278379 91.300075,11.4095 C92.0410787,10.4911621 92.9309031,9.77233593 93.969575,9.253 C95.0082469,8.73366407 96.1545687,8.474 97.408575,8.474 C98.4219134,8.474 99.2800715,8.62283184 99.983075,8.9205 C100.686079,9.21816815 101.322572,9.60766426 101.892575,10.089 L101.892575,0.114 L107.782575,0.114 L107.782575,28.557 L104.134575,28.557 Z M98.168575,24.339 C98.5992438,24.339 98.9887399,24.2978337 99.337075,24.2155 C99.6854101,24.1331663 100.00524,24.0160008 100.296575,23.864 C100.58791,23.7119992 100.863407,23.5220011 101.123075,23.294 C101.382743,23.0659989 101.63924,22.8000015 101.892575,22.496 L101.892575,14.136 C101.436573,13.6419975 100.952078,13.2968343 100.439075,13.1005 C99.9260724,12.9041657 99.3845778,12.806 98.814575,12.806 C98.2699056,12.806 97.7695773,12.9136656 97.313575,13.129 C96.8575727,13.3443344 96.4617433,13.6894976 96.126075,14.1645 C95.7904067,14.6395024 95.5275759,15.2569962 95.337575,16.017 C95.147574,16.7770038 95.052575,17.6953279 95.052575,18.772 C95.052575,19.8106719 95.1285742,20.6846631 95.280575,21.394 C95.4325758,22.1033369 95.6447403,22.6764978 95.917075,23.1135 C96.1894097,23.5505022 96.5155731,23.863999 96.895575,24.054 C97.2755769,24.2440009 97.699906,24.339 98.168575,24.339 Z M118.92709,8.55 C120.231763,8.55 121.425585,8.75266464 122.50859,9.158 C123.591595,9.56333536 124.522586,10.1523295 125.30159,10.925 C126.080594,11.6976705 126.688588,12.6444944 127.12559,13.7655 C127.562592,14.8865056 127.78109,16.1563262 127.78109,17.575 C127.78109,18.0183355 127.76209,18.3793319 127.72409,18.658 C127.68609,18.9366681 127.616424,19.1583325 127.51509,19.323 C127.413756,19.4876675 127.277591,19.6016663 127.10659,19.665 C126.935589,19.7283336 126.717091,19.76 126.45109,19.76 L115.08909,19.76 C115.279091,21.4066749 115.779419,22.6004963 116.59009,23.3415 C117.400761,24.0825037 118.44575,24.453 119.72509,24.453 C120.409093,24.453 120.998088,24.3706675 121.49209,24.206 C121.986092,24.0413325 122.426255,23.8576677 122.81259,23.655 C123.198925,23.4523323 123.553588,23.2686675 123.87659,23.104 C124.199592,22.9393325 124.538422,22.857 124.89309,22.857 C125.361759,22.857 125.716422,23.0279983 125.95709,23.37 L127.66709,25.479 C127.059087,26.1756701 126.403594,26.7424978 125.70059,27.1795 C124.997586,27.6165022 124.275594,27.9584988 123.53459,28.2055 C122.793586,28.4525012 122.052594,28.6234995 121.31159,28.7185 C120.570586,28.8135005 119.864427,28.861 119.19309,28.861 C117.812416,28.861 116.517263,28.6361689 115.30759,28.1865 C114.097917,27.7368311 113.040261,27.0686711 112.13459,26.182 C111.228919,25.2953289 110.513259,24.1933399 109.98759,22.876 C109.461921,21.5586601 109.19909,20.0260087 109.19909,18.278 C109.19909,16.9606601 109.423921,15.7130059 109.87359,14.535 C110.323259,13.3569941 110.969252,12.3246711 111.81159,11.438 C112.653928,10.5513289 113.673584,9.84833593 114.87059,9.329 C116.067596,8.80966407 117.419749,8.55 118.92709,8.55 Z M119.04109,12.616 C117.913751,12.616 117.033426,12.9358301 116.40009,13.5755 C115.766753,14.2151699 115.348758,15.1366606 115.14609,16.34 L122.49909,16.34 C122.49909,15.871331 122.438924,15.4153355 122.31859,14.972 C122.198256,14.5286644 122.001925,14.1328351 121.72959,13.7845 C121.457255,13.4361649 121.099426,13.1543344 120.65609,12.939 C120.212754,12.7236656 119.674426,12.616 119.04109,12.616 Z M129.311605,28.557 L129.311605,8.854 L132.807605,8.854 C133.09894,8.854 133.342771,8.87933308 133.539105,8.93 C133.735439,8.98066692 133.900104,9.05983279 134.033105,9.1675 C134.166106,9.2751672 134.267438,9.41766578 134.337105,9.595 C134.406772,9.77233422 134.466938,9.9876654 134.517605,10.241 L134.840605,12.084 C135.562609,10.9693278 136.373267,10.0890032 137.272605,9.443 C138.171943,8.79699677 139.1536,8.474 140.217605,8.474 C141.116943,8.474 141.838936,8.68933118 142.383605,9.12 L141.623605,13.452 C141.572938,13.7180013 141.471606,13.9048328 141.319605,14.0125 C141.167604,14.1201672 140.96494,14.174 140.711605,14.174 C140.496271,14.174 140.24294,14.1455003 139.951605,14.0885 C139.66027,14.0314997 139.292941,14.003 138.849605,14.003 C137.304264,14.003 136.088276,14.8263251 135.201605,16.473 L135.201605,28.557 L129.311605,28.557 Z" id="path-1"></path>
        <path d="M160.97612,0.874 L160.97612,5.814 L149.61412,5.814 L149.61412,12.274 L158.31612,12.274 L158.31612,17.024 L149.61412,17.024 L149.61412,23.617 L160.97612,23.617 L160.97612,28.557 L143.15412,28.557 L143.15412,0.874 L160.97612,0.874 Z M176.604635,28.557 C176.2373,28.557 175.930136,28.4746675 175.683135,28.31 C175.436134,28.1453325 175.261969,27.898335 175.160635,27.569 L174.704635,26.068 C174.311966,26.4860021 173.900304,26.8659983 173.469635,27.208 C173.038966,27.5500017 172.573471,27.8444988 172.073135,28.0915 C171.572799,28.3385012 171.034471,28.5284993 170.458135,28.6615 C169.881799,28.7945007 169.257972,28.861 168.586635,28.861 C167.56063,28.861 166.610639,28.6330023 165.736635,28.177 C164.862631,27.7209977 164.108971,27.0623376 163.475635,26.201 C162.842298,25.3396624 162.345137,24.2851729 161.984135,23.0375 C161.623133,21.7898271 161.442635,20.368008 161.442635,18.772 C161.442635,17.3026593 161.6453,15.9378396 162.050635,14.6775 C162.45597,13.4171604 163.029131,12.3278379 163.770135,11.4095 C164.511139,10.4911621 165.400963,9.77233593 166.439635,9.253 C167.478307,8.73366407 168.624629,8.474 169.878635,8.474 C170.891973,8.474 171.750131,8.62283184 172.453135,8.9205 C173.156139,9.21816815 173.792632,9.60766426 174.362635,10.089 L174.362635,0.114 L180.252635,0.114 L180.252635,28.557 L176.604635,28.557 Z M170.638635,24.339 C171.069304,24.339 171.4588,24.2978337 171.807135,24.2155 C172.15547,24.1331663 172.4753,24.0160008 172.766635,23.864 C173.05797,23.7119992 173.333467,23.5220011 173.593135,23.294 C173.852803,23.0659989 174.1093,22.8000015 174.362635,22.496 L174.362635,14.136 C173.906633,13.6419975 173.422138,13.2968343 172.909135,13.1005 C172.396132,12.9041657 171.854638,12.806 171.284635,12.806 C170.739966,12.806 170.239637,12.9136656 169.783635,13.129 C169.327633,13.3443344 168.931803,13.6894976 168.596135,14.1645 C168.260467,14.6395024 167.997636,15.2569962 167.807635,16.017 C167.617634,16.7770038 167.522635,17.6953279 167.522635,18.772 C167.522635,19.8106719 167.598634,20.6846631 167.750635,21.394 C167.902636,22.1033369 168.1148,22.6764978 168.387135,23.1135 C168.65947,23.5505022 168.985633,23.863999 169.365635,24.054 C169.745637,24.2440009 170.169966,24.339 170.638635,24.339 Z M188.47115,8.854 L188.47115,21.356 C188.47115,22.3313382 188.692814,23.0849973 189.13615,23.617 C189.579486,24.1490027 190.231812,24.415 191.09315,24.415 C191.739153,24.415 192.343981,24.2820013 192.90765,24.016 C193.471319,23.7499987 194.019147,23.3763357 194.55115,22.895 L194.55115,8.854 L200.44115,8.854 L200.44115,28.557 L196.79315,28.557 C196.05848,28.557 195.577151,28.22767 195.34915,27.569 L194.98815,26.429 C194.608148,26.7963352 194.215485,27.1288318 193.81015,27.4265 C193.404815,27.7241682 192.970986,27.977499 192.50865,28.1865 C192.046314,28.395501 191.549153,28.5601661 191.01715,28.6805 C190.485147,28.8008339 189.902486,28.861 189.26915,28.861 C188.192478,28.861 187.239321,28.6741685 186.40965,28.3005 C185.579979,27.9268315 184.880153,27.4043367 184.31015,26.733 C183.740147,26.0616633 183.309485,25.2700046 183.01815,24.358 C182.726815,23.4459954 182.58115,22.4453388 182.58115,21.356 L182.58115,8.854 L188.47115,8.854 Z M217.361665,13.528 C217.184331,13.7433344 217.013332,13.9143327 216.848665,14.041 C216.683998,14.1676673 216.449667,14.231 216.145665,14.231 C215.85433,14.231 215.5915,14.161334 215.357165,14.022 C215.12283,13.882666 214.86,13.7275009 214.568665,13.5565 C214.27733,13.3854991 213.935334,13.230334 213.542665,13.091 C213.149996,12.951666 212.662335,12.882 212.079665,12.882 C211.357661,12.882 210.733834,13.0149987 210.208165,13.281 C209.682496,13.5470013 209.248667,13.9269975 208.906665,14.421 C208.564663,14.9150025 208.311332,15.5198298 208.146665,16.2355 C207.981998,16.9511702 207.899665,17.7586622 207.899665,18.658 C207.899665,20.5453428 208.263828,21.9956616 208.992165,23.009 C209.720502,24.0223384 210.724325,24.529 212.003665,24.529 C212.687668,24.529 213.229163,24.4435009 213.628165,24.2725 C214.027167,24.1014991 214.365997,23.911501 214.644665,23.7025 C214.923333,23.493499 215.17983,23.3003342 215.414165,23.123 C215.6485,22.9456658 215.942997,22.857 216.297665,22.857 C216.766334,22.857 217.120997,23.0279983 217.361665,23.37 L219.071665,25.479 C218.463662,26.1756701 217.824002,26.7424978 217.152665,27.1795 C216.481328,27.6165022 215.794169,27.9584988 215.091165,28.2055 C214.388161,28.4525012 213.682002,28.6234995 212.972665,28.7185 C212.263328,28.8135005 211.573002,28.861 210.901665,28.861 C209.698326,28.861 208.548837,28.6330023 207.453165,28.177 C206.357493,27.7209977 205.394836,27.059171 204.565165,26.1915 C203.735494,25.323829 203.076834,24.256673 202.589165,22.99 C202.101496,21.723327 201.857665,20.2793414 201.857665,18.658 C201.857665,17.2393262 202.06983,15.9125062 202.494165,14.6775 C202.9185,13.4424938 203.545494,12.3721712 204.375165,11.4665 C205.204836,10.5608288 206.230826,9.84833593 207.453165,9.329 C208.675504,8.80966407 210.09099,8.55 211.699665,8.55 C213.245006,8.55 214.600326,8.79699753 215.765665,9.291 C216.931004,9.78500247 217.982327,10.5069952 218.919665,11.457 L217.361665,13.528 Z M233.37018,28.557 C232.812844,28.557 232.391681,28.4810008 232.10668,28.329 C231.821679,28.1769992 231.584181,27.8603357 231.39418,27.379 L230.97618,26.296 C230.482178,26.7140021 230.007182,27.0813317 229.55118,27.398 C229.095178,27.7146682 228.623349,27.9838322 228.13568,28.2055 C227.648011,28.4271678 227.128683,28.5918328 226.57768,28.6995 C226.026677,28.8071672 225.415517,28.861 224.74418,28.861 C223.844842,28.861 223.02785,28.7438345 222.29318,28.5095 C221.55851,28.2751655 220.934683,27.9300023 220.42168,27.474 C219.908677,27.0179977 219.512848,26.4511701 219.23418,25.7735 C218.955512,25.0958299 218.81618,24.3136711 218.81618,23.427 C218.81618,22.7303298 218.993512,22.0146703 219.34818,21.28 C219.702848,20.5453297 220.317176,19.8771697 221.19118,19.2755 C222.065184,18.6738303 223.243173,18.1703354 224.72518,17.765 C226.207187,17.3596646 228.075502,17.1316669 230.33018,17.081 L230.33018,16.245 C230.33018,15.0923276 230.092682,14.2595026 229.61768,13.7465 C229.142678,13.2334974 228.468184,12.977 227.59418,12.977 C226.89751,12.977 226.327516,13.0529992 225.88418,13.205 C225.440844,13.3570008 225.045015,13.527999 224.69668,13.718 C224.348345,13.9080009 224.009515,14.0789992 223.68018,14.231 C223.350845,14.3830008 222.958182,14.459 222.50218,14.459 C222.096845,14.459 221.751681,14.3608343 221.46668,14.1645 C221.181679,13.9681657 220.956847,13.7243348 220.79218,13.433 L219.72818,11.59 C220.918853,10.5386614 222.239339,9.75650256 223.68968,9.2435 C225.140021,8.73049743 226.694838,8.474 228.35418,8.474 C229.544853,8.474 230.618342,8.66716473 231.57468,9.0535 C232.531018,9.43983526 233.341677,9.97816321 234.00668,10.6685 C234.671683,11.3588368 235.181512,12.1789952 235.53618,13.129 C235.890848,14.0790047 236.06818,15.117661 236.06818,16.245 L236.06818,28.557 L233.37018,28.557 Z M226.60618,24.966 C227.366184,24.966 228.031177,24.8330013 228.60118,24.567 C229.171183,24.3009987 229.74751,23.8703363 230.33018,23.275 L230.33018,20.539 C229.152174,20.5896669 228.183184,20.6909992 227.42318,20.843 C226.663176,20.9950008 226.061516,21.1849989 225.61818,21.413 C225.174844,21.6410011 224.867681,21.9006652 224.69668,22.192 C224.525679,22.4833348 224.44018,22.7999983 224.44018,23.142 C224.44018,23.8133367 224.623845,24.2851653 224.99118,24.5575 C225.358515,24.8298347 225.896843,24.966 226.60618,24.966 Z M245.312695,28.861 C244.375357,28.861 243.548865,28.7248347 242.833195,28.4525 C242.117525,28.1801653 241.515864,27.7938358 241.028195,27.2935 C240.540526,26.7931642 240.17003,26.1883369 239.916695,25.479 C239.66336,24.7696631 239.536695,23.9780044 239.536695,23.104 L239.536695,12.92 L237.864695,12.92 C237.560693,12.92 237.301029,12.8218343 237.085695,12.6255 C236.870361,12.4291657 236.762695,12.1410019 236.762695,11.761 L236.762695,9.462 L239.897695,8.854 L241.056695,4.047 C241.208696,3.43899696 241.639358,3.135 242.348695,3.135 L245.426695,3.135 L245.426695,8.892 L250.214695,8.892 L250.214695,12.92 L245.426695,12.92 L245.426695,22.705 C245.426695,23.1610023 245.537527,23.5378318 245.759195,23.8355 C245.980863,24.1331682 246.300693,24.282 246.718695,24.282 C246.934029,24.282 247.114528,24.2598336 247.260195,24.2155 C247.405862,24.1711664 247.532528,24.1205003 247.640195,24.0635 C247.747862,24.0064997 247.849195,23.9558336 247.944195,23.9115 C248.039195,23.8671664 248.150028,23.845 248.276695,23.845 C248.454029,23.845 248.596528,23.8861663 248.704195,23.9685 C248.811862,24.0508337 248.922694,24.1806658 249.036695,24.358 L250.822695,27.151 C250.062691,27.7210028 249.2077,28.1484986 248.257695,28.4335 C247.30769,28.7185014 246.326033,28.861 245.312695,28.861 Z M257.82521,8.854 L257.82521,28.557 L251.93521,28.557 L251.93521,8.854 L257.82521,8.854 Z M258.50921,3.458 C258.50921,3.92666901 258.414211,4.36683127 258.22421,4.7785 C258.034209,5.19016872 257.774545,5.55116511 257.44521,5.8615 C257.115875,6.17183488 256.732712,6.41883241 256.29571,6.6025 C255.858708,6.78616758 255.393212,6.878 254.89921,6.878 C254.417874,6.878 253.968212,6.78616758 253.55021,6.6025 C253.132208,6.41883241 252.761712,6.17183488 252.43871,5.8615 C252.115708,5.55116511 251.862378,5.19016872 251.67871,4.7785 C251.495042,4.36683127 251.40321,3.92666901 251.40321,3.458 C251.40321,2.97666426 251.495042,2.52700209 251.67871,2.109 C251.862378,1.69099791 252.115708,1.32366825 252.43871,1.007 C252.761712,0.69033175 253.132208,0.44333422 253.55021,0.266 C253.968212,0.08866578 254.417874,-6.39488462e-14 254.89921,-6.39488462e-14 C255.393212,-6.39488462e-14 255.858708,0.08866578 256.29571,0.266 C256.732712,0.44333422 257.115875,0.69033175 257.44521,1.007 C257.774545,1.32366825 258.034209,1.69099791 258.22421,2.109 C258.414211,2.52700209 258.50921,2.97666426 258.50921,3.458 Z M269.501725,8.55 C270.996399,8.55 272.358052,8.78433099 273.586725,9.253 C274.815398,9.72166901 275.869887,10.3929956 276.750225,11.267 C277.630563,12.1410044 278.314556,13.2018271 278.802225,14.4495 C279.289894,15.6971729 279.533725,17.0999922 279.533725,18.658 C279.533725,20.2286745 279.289894,21.6441604 278.802225,22.9045 C278.314556,24.1648396 277.630563,25.2351623 276.750225,26.1155 C275.869887,26.9958377 274.815398,27.6734976 273.586725,28.1485 C272.358052,28.6235024 270.996399,28.861 269.501725,28.861 C267.994384,28.861 266.623231,28.6235024 265.388225,28.1485 C264.153219,27.6734976 263.089229,26.9958377 262.196225,26.1155 C261.303221,25.2351623 260.612894,24.1648396 260.125225,22.9045 C259.637556,21.6441604 259.393725,20.2286745 259.393725,18.658 C259.393725,17.0999922 259.637556,15.6971729 260.125225,14.4495 C260.612894,13.2018271 261.303221,12.1410044 262.196225,11.267 C263.089229,10.3929956 264.153219,9.72166901 265.388225,9.253 C266.623231,8.78433099 267.994384,8.55 269.501725,8.55 Z M269.501725,24.491 C270.857065,24.491 271.854555,24.0128381 272.494225,23.0565 C273.133895,22.1001619 273.453725,20.6466764 273.453725,18.696 C273.453725,16.7453236 273.133895,15.2950047 272.494225,14.345 C271.854555,13.3949952 270.857065,12.92 269.501725,12.92 C268.108385,12.92 267.088728,13.3949952 266.442725,14.345 C265.796722,15.2950047 265.473725,16.7453236 265.473725,18.696 C265.473725,20.6466764 265.796722,22.1001619 266.442725,23.0565 C267.088728,24.0128381 268.108385,24.491 269.501725,24.491 Z M280.91224,28.557 L280.91224,8.854 L284.56024,8.854 C284.927575,8.854 285.234739,8.93633251 285.48174,9.101 C285.728741,9.26566749 285.902906,9.51266502 286.00424,9.842 L286.34624,10.982 C286.726242,10.6273316 287.118905,10.2980015 287.52424,9.994 C287.929575,9.68999848 288.363404,9.43350104 288.82574,9.2245 C289.288076,9.01549895 289.788404,8.85083393 290.32674,8.7305 C290.865076,8.61016606 291.450903,8.55 292.08424,8.55 C293.160912,8.55 294.114069,8.73683146 294.94374,9.1105 C295.773411,9.48416853 296.473237,10.0034967 297.04324,10.6685 C297.613243,11.3335033 298.043905,12.1251621 298.33524,13.0435 C298.626575,13.9618379 298.77224,14.9593279 298.77224,16.036 L298.77224,28.557 L292.88224,28.557 L292.88224,16.036 C292.88224,15.0733285 292.660576,14.322836 292.21724,13.7845 C291.773904,13.246164 291.121578,12.977 290.26024,12.977 C289.614237,12.977 289.006243,13.1163319 288.43624,13.395 C287.866237,13.6736681 287.321576,14.047331 286.80224,14.516 L286.80224,28.557 L280.91224,28.557 Z" id="path-2"></path>
    </defs>
    <g id="Page-1" stroke="none" stroke-width="1" fill="none" fill-rule="evenodd">
        <g id="Homepage" transform="translate(-70.000000, -1900.000000)" fill-rule="nonzero">
            <g id="Footer" transform="translate(-9.000000, 1662.000000)">
                <g id="Logo.-links,-copyright" transform="translate(79.000000, 238.000000)">
                    <g id="ShoulderEducation" transform="translate(0.722622, 0.443000)">
                        <g id="Shoulder">
                            <use fill="#000000" xlink:href="#path-1"></use>
                            <use fill="#EFEFEF" xlink:href="#path-1"></use>
                        </g>
                        <g id="Education">
                            <use fill="#1E88E5" xlink:href="#path-2"></use>
                            <use fill="#EFEFEF" xlink:href="#path-2"></use>
                        </g>
                    </g>
                </g>
            </g>
        </g>
    </g>
</svg>
