
<svg width="87px" height="102px" viewBox="0 0 87 102" version="1.1" xmlns="http://www.w3.org/2000/svg" xmlns:xlink="http://www.w3.org/1999/xlink">
    <g id="Page-1" stroke="none" stroke-width="1" fill="none" fill-rule="evenodd">
        <g id="Homepage" transform="translate(-514.000000, -1705.000000)">
            <g id="Footer" transform="translate(-9.000000, 1662.000000)">
                <g id="Logos" transform="translate(41.000000, 43.000000)">
                    <g id="abos" transform="translate(480.000000, 0.000000)">
                        <path d="M37.7050209,27.0262489 C40.1621339,26.4276037 42.958159,26 45.5,26 C48.2112971,26 50.9225941,26.4276037 53.3797071,27.0262489 C72.2740586,31.6443692 86,52.4259102 86,76.5427604 C86,104.337003 67.8682008,127 45.5,127 C23.2165272,127 5,104.337003 5,76.5427604 C5,52.4259102 18.7259414,31.6443692 37.7050209,27.0262489 Z" id="SVGID_x5F_1_x5F_"></path>
                        <path d="M36.4679516,21.1170413 C15.1810502,26.4001564 -0.0844567593,49.6629052 0.00035161281,76.6749615 C0.0851599849,107.777171 20.608786,133.084997 45.7120642,132.999785 C70.8153423,132.914574 91.0845432,107.521537 90.9997348,76.3341153 C90.9149265,49.4072706 75.3949944,26.2297333 54.108093,21.1170413 C51.3094167,20.435349 48.2563153,20.0092913 45.2032139,20.0092913 C42.3197293,19.9240798 39.1818195,20.435349 36.4679516,21.1170413 Z" id="SVGID_x5F_2_x5F_"></path>
                        <g id="Group" transform="translate(2.000000, 0.000000)">
                            <g>
                                <path d="M85.8058824,51 C85.8058824,78.965 66.6147059,101.66 42.9882353,101.66 C19.3617647,101.66 0.255882353,78.965 0.255882353,51 C0.255882353,22.95 19.3617647,0.255 43.0735294,0.255 C66.7,0.255 85.8058824,22.95 85.8058824,51" id="Path" fill="#FFFFFF"></path>
                                <path d="M82.7352941,51.34 C82.7352941,77.52 64.9088235,98.685 42.9882353,98.685 C21.0676471,98.685 3.32647059,77.435 3.32647059,51.34 C3.32647059,25.16 21.1529412,3.995 43.0735294,3.995 C64.9941176,3.995 82.7352941,25.16 82.7352941,51.34" id="Path" fill="#FFFFFF"></path>
                                <g transform="translate(12.794118, 11.900000)">
                                    <path d="M61.9235294,39.1 C61.9235294,60.605 48.1058824,78.115 30.9617647,78.115 C13.8176471,78.115 0,60.605 0,39.1 C0,17.595 13.8176471,0.085 30.9617647,0.085 C48.1058824,0.085 61.9235294,17.51 61.9235294,39.1" id="Path" fill="#047C5F"></path>
                                    <path d="M32.3264706,48.365 C32.3264706,48.365 35.7382353,51.255 36.8470588,52.53 C39.15,55.165 35.9088235,57.885 32.6676471,57.205 C29.4264706,56.525 25.4176471,54.995 23.7117647,51.085 C21.8352941,46.665 27.9764706,47.515 32.2411765,46.665 C36.8470588,45.73 35.3970588,43.095 33.8617647,43.01 C32.3264706,42.925 31.9,43.35 29.5117647,43.775 C27.2088235,44.2 26.3558824,43.945 24.9911765,43.945 C23.4558824,43.945 21.3235294,40.63 27.8058824,38.335 C30.0235294,37.57 31.9,35.53 24.9911765,34.085 C22.0911765,33.49 22.0911765,30.43 23.9676471,29.41 C25.1617647,28.73 26.5264706,27.965 29.5117647,28.05 C32.4970588,28.135 35.0558824,28.73 39.0647059,36.295 C41.4529412,40.885 40.5147059,48.535 40.2588235,52.7 C40.0882353,55.845 40.2588235,56.695 41.3676471,60.01 C41.0264706,59.245 40.0029412,56.78 40.0029412,56.78 L39.7470588,56.865 C39.7470588,56.865 39.9176471,59.075 40.4294118,60.18 C39.7470588,59.245 39.0647059,56.865 39.0647059,56.865 L38.8088235,56.95 C38.8088235,56.95 38.7235294,58.395 39.4058824,60.69 C38.8941176,59.925 38.2117647,57.63 38.2117647,56.015 C38.2117647,54.4 39.0647059,49.98 39.0647059,47.77 C39.0647059,45.56 39.8323529,41.14 38.2117647,37.91 C33.5205882,28.645 30.1088235,29.07 26.6970588,29.58 C24.65,29.92 23.7970588,31.11 24.5647059,32.045 C25.3323529,32.98 26.8676471,32.895 28.4029412,33.405 C32.3264706,34.765 32.1558824,37.995 30.3647059,38.93 C29.4264706,39.44 26.5264706,40.63 25.5029412,41.31 C24.5647059,41.905 25.5882353,42.415 25.9294118,42.415 C27.6352941,42.585 30.6205882,42.16 32.3264706,41.735 C36.1647059,40.8 38.7235294,44.285 36.7617647,46.155 C35.0558824,47.855 33.2647059,48.62 30.45,48.875 C27.1235294,49.215 24.5647059,49.045 25.3323529,50.405 C28.3176471,55.93 36.7617647,56.95 35.2264706,53.55 C34.8,52.615 30.2794118,48.365 30.2794118,48.365 L32.3264706,48.365 Z" id="Path" fill="#000000" fill-rule="nonzero"></path>
                                    <path d="M28.1470588,29.24 C31.1323529,28.985 34.2029412,29.665 38.2970588,37.74 C39.4058824,40.035 39.4058824,42.84 39.3205882,45.05 C39.8323529,44.625 40.3441176,44.455 40.7705882,44.37 C40.7705882,41.395 40.3441176,38.42 39.15,36.125 C35.2264706,28.56 32.5823529,28.05 29.5970588,27.88 C29.0852941,27.88 28.5735294,27.88 28.1470588,27.88 L28.1470588,29.24 Z" id="Path" fill="#000000" fill-rule="nonzero"></path>
                                    <rect id="Rectangle" fill="#FFFFFF" fill-rule="nonzero" x="25.3323529" y="26.86" width="2.72941176" height="42.075"></rect>
                                    <path d="M35.3117647,55.93 C35.3117647,52.19 35.9941176,49.385 37.2735294,47.43 C38.5529412,45.475 39.6617647,44.455 41.6235294,44.455 C42.9029412,44.455 44.6941176,45.56 45.6323529,47.09 C46.8264706,49.045 47.7647059,53.38 47.7647059,55.76 C47.7647059,58.99 47.1676471,61.625 45.9735294,63.58 C44.6941176,65.79 43.6705882,66.895 41.5382353,66.895 C39.4058824,66.895 38.2117647,65.79 36.9323529,63.495 C35.9088235,61.285 35.3117647,58.82 35.3117647,55.93 Z M37.2735294,55.93 C37.2735294,58.565 37.7852941,60.69 38.7235294,62.135 C39.6617647,63.58 40.3441176,64.345 41.7088235,64.345 C43.0735294,64.345 43.5852941,63.58 44.5235294,62.135 C45.4617647,60.605 45.8882353,58.48 45.8882353,55.59 C45.8882353,53.72 45.4617647,50.83 44.7794118,49.47 C44.0117647,47.77 42.5617647,46.835 41.7088235,46.835 C40.2588235,46.835 39.5764706,47.6 38.7235294,49.045 C37.7852941,50.575 37.2735294,52.785 37.2735294,55.93 Z" id="Shape" fill="#FFFFFF" fill-rule="nonzero"></path>
                                    <path d="M3.49705882,66.64 L8.95588235,44.965 L11.0029412,44.965 L16.8029412,66.64 L14.6705882,66.64 L12.3676471,57.46 L7.67647059,57.545 L5.45882353,66.725 L3.49705882,66.725 L3.49705882,66.64 Z M8.18823529,55.76 L11.9411765,55.76 L10.9176471,51.765 C10.4911765,49.895 10.15,48.79 9.89411765,47.6 C9.72352941,48.96 9.46764706,50.065 9.12647059,51.425 L8.18823529,55.76 Z" id="Shape" fill="#FFFFFF" fill-rule="nonzero"></path>
                                    <path d="M15.6088235,66.64 L15.6088235,44.965 L20.1294118,44.965 C22.6882353,44.965 23.8823529,46.665 24.2235294,47.515 C24.65,48.365 24.8205882,49.385 24.8205882,50.49 C24.8205882,51.51 24.65,52.36 24.3088235,53.21 C23.9676471,53.975 23.4558824,54.655 22.8588235,55.165 C25.6735294,55.59 26.3558824,59.075 26.3558824,60.435 C26.3558824,61.71 26.2705882,64.77 23.9676471,66.045 C23.2,66.47 22.2617647,66.725 20.9823529,66.725 L15.6088235,66.725 L15.6088235,66.64 Z M17.4852941,54.06 L19.4470588,54.06 C20.2147059,54.06 20.4705882,53.89 20.8117647,53.89 C22.2617647,53.635 23.2,52.615 23.2,50.83 C23.2,49.045 23.2,47.26 21.1529412,47.005 C20.7264706,46.92 20.3852941,46.835 19.3617647,46.835 L17.4852941,46.835 L17.4852941,54.06 L17.4852941,54.06 Z M17.4852941,64.6 L21.0676471,64.6 C21.8352941,64.6 22.4323529,64.515 22.7735294,64.345 C23.2852941,64.09 23.7117647,63.665 23.9676471,63.07 C24.2235294,62.475 24.3941176,61.71 24.3941176,60.86 C24.3941176,60.01 24.2235294,58.905 23.9676471,58.31 C23.7117647,57.715 23.3705882,57.29 22.8588235,57.035 C22.4323529,56.78 21.6647059,56.61 20.7264706,56.61 L17.4,56.61 L17.4,64.6 L17.4852941,64.6 Z" id="Shape" fill="#FFFFFF" fill-rule="nonzero"></path>
                                    <path d="M45.8029412,59.16 L47.5941176,58.905 C47.6794118,60.095 47.9352941,61.03 48.2764706,61.71 C48.6176471,62.39 49.1294118,63.41 49.7264706,63.835 C50.3235294,64.26 51.0911765,64.43 51.8588235,64.43 C52.9676471,64.43 53.8205882,64.09 54.5029412,63.41 C55.1,62.73 55.4411765,61.37 55.4411765,60.265 C55.4411765,59.585 55.2705882,59.075 55.1,58.565 C54.3323529,56.61 52.7970588,56.1 51.2617647,55.42 C49.3852941,54.57 48.1058824,54.06 47.2529412,52.87 C46.7411765,52.19 46.4852941,51.085 46.4852941,50.065 C46.4852941,48.28 46.9117647,46.835 47.85,45.73 C48.7882353,44.625 49.9823529,44.03 51.5176471,44.03 C52.5411765,44.03 53.4794118,44.285 54.3323529,44.795 C55.1,45.305 55.7823529,46.07 56.2088235,47.005 C56.6352941,47.94 56.8911765,49.13 56.8911765,50.49 L55.1,50.66 C55.0147059,49.215 54.6735294,47.685 54.0764706,47.005 C53.4794118,46.325 52.7117647,45.985 51.6029412,45.985 C50.4941176,45.985 49.7264706,46.325 49.1294118,46.92 C48.5323529,47.515 48.2764706,48.79 48.2764706,49.725 C48.2764706,50.575 48.4470588,51.255 48.8735294,51.765 C49.3,52.275 50.2382353,52.7 51.6882353,53.21 C53.0529412,53.72 54.0764706,54.145 54.6735294,54.485 C55.5264706,55.08 56.2088235,55.76 56.6352941,56.695 C57.0617647,57.63 57.3176471,58.65 57.3176471,59.925 C57.3176471,61.2 57.0617647,62.305 56.6352941,63.325 C56.2088235,64.345 55.5264706,65.11 54.7588235,65.62 C53.9911765,66.13 52.9676471,66.385 51.8588235,66.385 C50.0676471,66.385 48.7029412,65.705 47.6794118,64.43 C46.4,63.155 45.8029412,61.37 45.8029412,59.16 Z" id="Path" fill="#FFFFFF" fill-rule="nonzero"></path>
                                    <g transform="translate(7.676471, 6.800000)" fill="#FFFFFF" fill-rule="nonzero" id="Path">
                                        <path d="M38.8941176,58.735 C36.3352941,58.99 34.7147059,61.03 30.6205882,59.755 C29.5970588,59.415 28.6588235,59.245 27.8058824,59.245 C24.9058824,57.8 24.7352941,55.42 24.7352941,52.7 C24.7352941,49.725 32.4117647,44.54 29,39.27 C28.4882353,38.505 26.0147059,36.04 25.4176471,35.105 C24.8205882,34.17 23.7970588,32.725 22.1764706,30.94 C20.1294118,28.73 23.3705882,23.63 24.4794118,21.675 C24.8205882,21.08 25.0764706,20.485 25.2470588,19.89 C25.2470588,19.89 25.2470588,19.89 25.2470588,19.805 C25.7588235,19.55 26.3558824,19.38 27.2088235,19.21 C29.5970588,18.785 30.5352941,20.485 31.3029412,21.59 C32.0705882,22.695 34.1176471,26.01 34.7147059,26.435 C35.9088235,27.455 36.9323529,27.88 36.9323529,27.88 L37.1882353,27.625 C37.1882353,27.625 35.8235294,27.03 35.0558824,26.18 C34.4588235,25.585 33.5205882,23.97 32.4970588,22.355 C32.9235294,22.1 33.6058824,21.675 34.5441176,21.59 C35.9941176,21.42 36.6764706,20.995 36.6764706,20.995 C36.6764706,20.995 36.0794118,20.825 34.1176471,21.25 C33.35,21.42 32.5823529,21.675 32.1558824,21.93 C31.6441176,21.08 31.1323529,20.23 30.6205882,19.635 C29.5117647,18.275 28.3176471,17.935 27.3794118,17.765 C29.5970588,16.915 32.7529412,16.575 36.1647059,17.425 C39.9176471,18.275 44.7794118,20.655 44.7794118,20.655 L45.1205882,20.23 C45.1205882,20.23 42.5617647,18.955 39.4911765,17.85 C40.0882353,17.595 41.1970588,17.085 41.6235294,16.745 C43.1588235,15.725 42.9029412,15.215 42.9029412,15.215 L42.6470588,15.3 C42.6470588,15.3 42.5617647,15.81 41.7088235,16.405 C41.1117647,16.83 39.6617647,17.51 38.8941176,17.765 C36.9323529,17.085 34.8852941,16.405 33.1794118,16.235 C33.2647059,15.895 33.4352941,15.555 33.6911765,15.3 C34.2029412,14.62 34.8852941,13.77 35.2264706,13.345 C35.5676471,12.92 35.2264706,12.835 34.6294118,10.965 C33.9470588,8.925 33.4352941,6.035 33.6911765,5.27 C33.9470588,4.505 33.0088235,3.57 34.0323529,3.995 C35.0558824,4.42 36.25,4.93 37.1882353,5.95 C38.0411765,6.97 39.3205882,8.415 39.3205882,8.415 L39.6617647,7.82 C39.2352941,7.48 36.6764706,3.825 34.3735294,3.485 C32.1558824,3.06 33.0088235,3.91 33.0088235,4.59 C33.0088235,5.185 33.5205882,11.22 34.8852941,12.75 C34.8,13.43 33.5205882,14.535 33.0088235,15.47 C32.8382353,15.725 32.7529412,15.98 32.6676471,16.15 C32.4117647,16.15 32.1558824,16.15 31.9852941,16.15 C28.9147059,16.235 27.2088235,16.915 25.7588235,17.765 C25.7588235,17.595 25.7588235,17.51 25.6735294,17.34 C25.5882353,16.575 25.4176471,15.895 25.1617647,15.385 C25.9294118,15.3 26.9529412,14.96 27.8911765,14.535 C29,14.11 28.7441176,13.855 28.7441176,13.855 L28.6588235,13.43 C28.6588235,13.43 28.3176471,13.77 26.6970588,14.45 C25.8441176,14.79 25.2470588,14.875 24.8205882,14.79 C24.5647059,14.28 24.2235294,13.94 23.8823529,13.6 C23.3705882,12.835 22.9441176,11.985 22.9441176,10.71 C23.0294118,9.18 22.8588235,7.565 23.1147059,6.12 C23.2852941,5.95 23.4558824,5.78 23.7970588,5.78 C24.8205882,5.695 26.8676471,6.46 26.8676471,6.46 C26.8676471,6.46 26.1852941,5.355 24.5647059,5.355 C24.5647059,5.355 23.8823529,5.27 23.2852941,5.355 C23.4558824,4.93 23.6264706,4.505 23.8823529,4.165 C24.3941176,3.485 24.9058824,2.72 24.9058824,2.72 L24.7352941,2.21 C24.7352941,2.21 24.0529412,2.635 23.4558824,3.4 C22.8588235,4.165 22.4323529,4.675 22.0911765,5.27 C21.6647059,3.315 20.8970588,1.955 19.6176471,1.445 C17.8264706,0.765 17.6558824,1.445 17.6558824,1.445 L17.2294118,1.7 C17.2294118,1.7 18.7647059,1.275 19.8735294,2.125 C20.9823529,2.975 21.1529412,3.485 21.6647059,5.525 C21.75,5.865 21.75,6.12 21.8352941,6.375 C21.75,6.715 21.6647059,7.14 21.5794118,7.65 C21.3235294,9.095 21.3235294,10.965 21.3235294,12.155 C21.3235294,12.155 20.7264706,11.9 19.8735294,11.815 C19.7029412,11.815 19.5323529,11.815 19.3617647,11.815 C19.0205882,11.39 18.5088235,10.54 18.4235294,9.35 C18.3382353,7.65 18.4235294,6.97 18.4235294,6.97 C18.4235294,6.97 18.2529412,6.885 18.1676471,6.8 C18.2529412,6.97 17.8264706,7.99 18.0823529,9.69 C18.1676471,10.54 18.4235294,11.305 18.6794118,11.815 C17.8264706,11.985 16.8029412,12.24 15.8647059,12.58 C15.7794118,11.9 15.6941176,10.625 14.8411765,9.265 C13.3058824,6.715 10.9176471,5.95 9.29705882,6.545 C9.29705882,6.545 9.46764706,5.525 10.7470588,4.42 C12.0264706,3.23 10.7470588,4.42 10.0647059,4.42 C9.38235294,4.42 8.7,6.885 8.7,6.885 L8.7,6.885 C7.42058824,7.48 5.71470588,8.755 5.71470588,8.755 L6.05588235,9.095 C6.05588235,9.095 7.93235294,7.31 10.0647059,6.8 C12.1970588,6.29 14.3294118,9.35 14.3294118,9.35 C15.0970588,10.54 15.2676471,11.985 15.2676471,12.75 C14.5852941,12.92 13.9882353,13.09 13.6470588,13.005 C12.5382353,12.835 12.7088235,12.495 12.1117647,12.155 C11.5147059,11.815 11.6852941,12.495 12.1970588,12.835 C12.4529412,13.005 12.7088235,13.345 13.4764706,13.515 C12.9647059,13.685 12.2823529,13.94 11.0882353,14.62 C10.0647059,15.13 8.7,15.555 7.67647059,15.98 C7.50588235,15.81 7.33529412,15.64 7.07941176,15.47 C6.48235294,15.215 4.35,14.96 4.35,14.96 L4.35,15.47 C4.35,15.47 5.37352941,15.555 6.14117647,15.725 C6.65294118,15.81 6.90882353,16.065 7.07941176,16.32 C6.22647059,16.745 4.35,17.85 3.15588235,18.7 C1.45,19.975 1.53529412,20.315 0.682352941,20.995 C-0.170588235,21.675 0.341176471,21.93 0.341176471,21.93 C0.341176471,21.93 1.36470588,21.08 2.21764706,20.145 C2.98529412,19.295 5.8,17.85 5.8,17.85 C5.8,17.85 6.82352941,17.425 8.18823529,16.915 C8.18823529,16.915 8.18823529,16.915 8.18823529,16.915 C6.22647059,21.335 8.52941176,24.905 8.78529412,25.245 C8.7,24.905 7.42058824,20.315 8.87058824,18.275 C10.4058824,16.065 13.1352941,14.79 13.1352941,14.79 L13.1352941,14.79 C13.4764706,14.62 13.9029412,14.535 14.2441176,14.365 C14.0735294,14.535 13.9882353,14.705 13.9029412,14.96 C13.3911765,16.065 12.4529412,18.955 12.4529412,18.955 L12.9647059,19.295 C12.9647059,19.295 13.7323529,16.065 15.0117647,14.45 C15.2676471,14.195 15.5235294,13.94 15.95,13.77 C17.4852941,13.345 18.5941176,13.43 19.3617647,13.515 C23.7970588,14.45 23.6264706,18.445 19.7882353,24.65 C16.0352941,30.77 20.1294118,32.895 25.5882353,39.44 C29.6823529,44.2 20.5558824,45.56 21.0676471,53.125 C21.1529412,54.74 21.4941176,57.035 21.1529412,58.99 C20.9823529,59.84 20.5558824,60.35 19.9588235,60.69 C19.3617647,61.2 18.6794118,61.2 17.9970588,61.2 C14.3294118,60.86 11.5147059,59.84 5.97058824,58.65 C2.81470588,57.97 0.255882353,58.65 0.255882353,58.65 C0.255882353,58.65 0.255882353,59.075 0.511764706,59.415 C0.767647059,59.755 4.52058824,64.855 5.8,65.62 C7.07941176,66.385 9.38235294,68 10.4058824,68.51 C11.4294118,69.02 15.8647059,70.38 16.2058824,70.38 C16.6323529,71.145 23.2852941,72.25 25.2470588,72.505 C27.2088235,72.76 38.0411765,67.83 39.4058824,67.235 C40.7705882,66.64 45.3764706,60.01 45.3764706,60.01 C45.3764706,60.01 41.4529412,58.48 38.8941176,58.735 Z"></path>
                                        <path d="M8.87058824,25.5 C8.87058824,25.5 8.95588235,25.5 8.87058824,25.5 C8.95588235,25.5 8.95588235,25.5 8.87058824,25.5 Z"></path>
                                        <path d="M31.9852941,2.975 C31.9852941,2.975 33.1794118,2.805 30.7911765,1.53 C28.4029412,0.255 26.5264706,0.34 26.5264706,0.34 L27.3794118,0.935 C28.7441176,1.275 31.1323529,2.21 31.9852941,2.975 Z"></path>
                                        <path d="M18.2529412,6.885 C18.2529412,6.885 18.2529412,6.885 18.2529412,6.885 C18.1676471,6.8 18.1676471,6.885 18.2529412,6.885 Z"></path>
                                    </g>
                                    <g transform="translate(23.029412, 40.800000)" fill="#000000" fill-rule="nonzero" id="Path">
                                        <path d="M9.29705882,5.78 C8.01764706,6.035 6.48235294,6.12 5.11764706,6.29 L5.11764706,8.16 C5.8,8.075 6.56764706,8.075 7.42058824,7.99 C10.2352941,7.735 11.9411765,6.885 13.7323529,5.27 C15.6088235,3.485 13.4764706,0.34 9.97941176,0.765 L11.0882353,2.21 C12.5382353,2.465 13.6470588,4.93 9.29705882,5.78 Z"></path>
                                        <path d="M13.8176471,11.645 C13.7323529,11.56 13.6470588,11.475 13.5617647,11.39 L12.3676471,13.515 C12.2823529,15.895 5.03235294,14.535 2.30294118,9.52 C2.13235294,9.18 2.13235294,8.925 2.38823529,8.67 L2.38823529,6.8 C0.767647059,7.31 -0.170588235,8.16 0.767647059,10.285 C2.47352941,14.195 6.39705882,15.725 9.72352941,16.405 C12.8794118,17.085 16.1205882,14.365 13.8176471,11.645 Z"></path>
                                    </g>
                                    <path d="M25.0764706,33.915 C30.0235294,34.935 30.45,36.295 29.5117647,37.23 L30.6205882,38.59 C32.2411765,37.485 32.1558824,34.51 28.4029412,33.235 C26.8676471,32.725 25.4176471,32.895 24.5647059,31.875 C23.9676471,31.195 24.3088235,30.345 25.3323529,29.835 L25.3323529,28.56 C24.8205882,28.815 24.3941176,28.985 23.9676471,29.24 C22.2617647,30.26 22.1764706,33.32 25.0764706,33.915 Z" id="Path" fill="#000000" fill-rule="nonzero"></path>
                                    <path d="M25.0764706,43.775 C26.4411765,43.775 27.2088235,44.03 29.5970588,43.605 C30.0235294,43.52 30.3647059,43.435 30.6205882,43.435 L29.4264706,42.16 C28.1470588,42.33 26.8676471,42.415 25.9294118,42.33 C25.5882353,42.33 24.65,41.82 25.4176471,41.225 L25.4176471,39.355 C22.0911765,41.48 23.7970588,43.775 25.0764706,43.775 Z" id="Path" fill="#000000" fill-rule="nonzero"></path>
                                    <g transform="translate(4.264706, 2.550000)" fill="#FFFFFF" fill-rule="nonzero" id="Path">
                                        <path d="M33.6058824,18.445 C33.6058824,18.445 34.7147059,18.87 35.3117647,18.275 C35.9088235,17.68 36.3352941,17.51 36.3352941,17.51 C36.3352941,17.51 35.3970588,16.915 34.9705882,16.915 C34.5441176,17 34.1176471,17.085 34.1176471,17.085 C34.1176471,17.085 34.6294118,16.065 34.7147059,15.47 C34.7147059,14.875 34.3735294,14.025 34.3735294,14.025 C34.3735294,14.025 33.4352941,14.28 32.5823529,15.045 C32.4117647,14.79 32.3264706,14.45 32.1558824,14.195 C31.9852941,13.94 31.7294118,13.515 31.7294118,13.515 C31.7294118,13.515 31.1323529,13.94 30.9617647,14.28 C30.7058824,14.79 30.9617647,16.065 30.9617647,16.065 C30.9617647,16.065 30.7058824,15.725 30.0235294,15.98 C29.5117647,16.15 28.7441176,16.405 28.7441176,16.405 C28.7441176,16.405 29.4264706,18.02 29.8529412,18.19 C30.2794118,18.36 31.2176471,18.615 31.2176471,18.615 C31.2176471,18.615 32.1558824,20.485 33.0088235,20.825 C33.8617647,21.165 33.8617647,21.165 33.8617647,21.165 C33.8617647,21.165 34.3735294,19.21 34.1176471,18.87 C33.7764706,18.615 33.6058824,18.445 33.6058824,18.445 Z"></path>
                                        <path d="M38.3823529,16.32 C38.3823529,16.32 38.0411765,15.215 38.7235294,14.62 C39.3205882,14.11 39.5764706,13.685 39.5764706,13.685 C39.5764706,13.685 40.0882353,14.705 40.0029412,15.13 C39.9176471,15.555 39.8323529,15.895 39.8323529,15.895 C39.8323529,15.895 40.9411765,15.47 41.4529412,15.47 C42.05,15.47 42.9029412,15.895 42.9029412,15.895 C42.9029412,15.895 42.5617647,16.83 41.7088235,17.595 C41.9647059,17.765 42.2205882,17.935 42.4764706,18.105 C42.7323529,18.275 43.0735294,18.53 43.0735294,18.53 C43.0735294,18.53 42.5617647,19.125 42.2205882,19.295 C41.7088235,19.55 40.5147059,19.125 40.5147059,19.125 C40.5147059,19.125 40.7705882,19.38 40.5147059,20.145 C40.3441176,20.655 39.9176471,21.335 39.9176471,21.335 C39.9176471,21.335 38.3823529,20.485 38.2117647,20.06 C38.0411765,19.55 37.8705882,18.7 37.8705882,18.7 C37.8705882,18.7 36.0794118,17.595 35.8235294,16.745 C35.5676471,15.895 35.5676471,15.895 35.5676471,15.895 C35.5676471,15.895 37.6147059,15.555 37.8705882,15.895 C38.1264706,16.235 38.3823529,16.32 38.3823529,16.32 Z"></path>
                                        <path d="M43.0735294,14.28 C43.0735294,14.28 42.8176471,15.47 43.4147059,15.98 C44.0970588,16.49 44.2676471,16.83 44.2676471,16.83 C44.2676471,16.83 44.7794118,15.81 44.6088235,15.385 C44.5235294,15.045 44.3529412,14.62 44.3529412,14.62 C44.3529412,14.62 45.4617647,15.045 46.0588235,14.96 C46.6558824,14.875 47.4235294,14.45 47.4235294,14.45 C47.4235294,14.45 47.0823529,13.6 46.1441176,12.835 C46.4,12.665 46.6558824,12.495 46.9117647,12.325 C47.1676471,12.155 47.5088235,11.815 47.5088235,11.815 C47.5088235,11.815 46.9970588,11.22 46.6558824,11.135 C46.0588235,10.88 44.95,11.39 44.95,11.39 C44.95,11.39 45.2058824,11.135 44.95,10.37 C44.7794118,9.86 44.3529412,9.18 44.3529412,9.18 C44.3529412,9.18 42.9029412,10.03 42.7323529,10.54 C42.5617647,11.05 42.4764706,11.9 42.4764706,11.9 C42.4764706,11.9 40.7705882,13.09 40.5147059,13.94 C40.2588235,14.79 40.2588235,14.79 40.2588235,14.79 C40.2588235,14.79 42.3058824,15.045 42.5617647,14.705 C42.8176471,14.365 43.0735294,14.28 43.0735294,14.28 Z"></path>
                                        <path d="M47.9352941,19.975 C47.9352941,19.975 49.1294118,20.23 49.6411765,19.55 C50.1529412,18.87 50.4941176,18.615 50.4941176,18.615 C50.4941176,18.615 49.4705882,18.19 49.0441176,18.275 C48.7029412,18.36 48.2764706,18.53 48.2764706,18.53 C48.2764706,18.53 48.6176471,17.425 48.5323529,16.83 C48.4470588,16.235 47.9352941,15.47 47.9352941,15.47 C47.9352941,15.47 47.0823529,15.895 46.3147059,16.745 C46.1441176,16.49 45.9735294,16.235 45.8029412,15.98 C45.6323529,15.725 45.2911765,15.385 45.2911765,15.385 C45.2911765,15.385 44.7794118,15.895 44.6088235,16.32 C44.4382353,16.915 44.95,18.02 44.95,18.02 C44.95,18.02 44.6941176,17.765 43.9264706,18.02 C43.5,18.275 42.8176471,18.7 42.8176471,18.7 C42.8176471,18.7 43.7558824,20.145 44.2676471,20.315 C44.7794118,20.4 45.6323529,20.57 45.6323529,20.57 C45.6323529,20.57 46.8264706,22.27 47.7647059,22.44 C48.6176471,22.61 48.6176471,22.61 48.6176471,22.61 C48.6176471,22.61 48.7882353,20.57 48.4470588,20.315 C48.1911765,20.145 47.9352941,19.975 47.9352941,19.975 Z"></path>
                                        <path d="M40.9411765,26.945 C40.9411765,26.945 41.4529412,28.05 42.3058824,27.965 C43.1588235,27.965 43.5852941,28.05 43.5852941,28.05 C43.5852941,28.05 43.3294118,26.945 42.9882353,26.69 C42.6470588,26.435 42.3058824,26.265 42.3058824,26.265 C42.3058824,26.265 43.4147059,25.84 43.8411765,25.415 C44.2676471,24.99 44.6088235,24.14 44.6088235,24.14 C44.6088235,24.14 43.7558824,23.715 42.6470588,23.715 C42.7323529,23.46 42.8176471,23.12 42.9029412,22.78 C42.9882353,22.525 43.0735294,22.015 43.0735294,22.015 C43.0735294,22.015 42.3058824,21.93 41.9647059,22.015 C41.3676471,22.185 40.7705882,23.29 40.7705882,23.29 C40.7705882,23.29 40.7705882,22.865 40.1735294,22.525 C39.6617647,22.27 38.9794118,22.015 38.9794118,22.015 C38.9794118,22.015 38.3823529,23.63 38.6382353,24.055 C38.8088235,24.48 39.3205882,25.245 39.3205882,25.245 C39.3205882,25.245 38.7235294,27.2 39.15,28.05 C39.4911765,28.9 39.4911765,28.9 39.4911765,28.9 C39.4911765,28.9 41.1970588,27.795 41.1970588,27.37 C40.9411765,27.285 40.9411765,26.945 40.9411765,26.945 Z"></path>
                                        <path d="M50.2382353,24.055 C50.2382353,24.055 51.0911765,23.205 51.8588235,23.46 C52.6264706,23.715 53.0529412,23.715 53.0529412,23.715 C53.0529412,23.715 52.4558824,24.65 52.0294118,24.82 C51.6882353,24.905 51.2617647,24.99 51.2617647,24.99 C51.2617647,24.99 52.2,25.67 52.4558824,26.18 C52.7117647,26.69 52.7970588,27.625 52.7970588,27.625 C52.7970588,27.625 51.8588235,27.795 50.75,27.455 C50.75,27.71 50.75,28.05 50.75,28.39 C50.75,28.645 50.6647059,29.155 50.6647059,29.155 C50.6647059,29.155 49.8970588,28.985 49.6411765,28.815 C49.1294118,28.475 48.9588235,27.2 48.9588235,27.2 C48.9588235,27.2 48.8735294,27.54 48.1058824,27.71 C47.5941176,27.795 46.8264706,27.795 46.8264706,27.795 C46.8264706,27.795 46.7411765,26.095 47.0823529,25.67 C47.4235294,25.33 48.1058824,24.735 48.1058824,24.735 C48.1058824,24.735 48.1911765,22.695 48.7882353,22.015 C49.3852941,21.335 49.3852941,21.335 49.3852941,21.335 C49.3852941,21.335 50.6647059,22.95 50.5794118,23.29 C50.4088235,23.715 50.2382353,24.055 50.2382353,24.055 Z"></path>
                                        <path d="M42.1352941,31.96 C42.1352941,31.96 43.2441176,31.45 43.8411765,32.045 C44.4382353,32.555 44.8647059,32.725 44.8647059,32.725 C44.8647059,32.725 43.9264706,33.405 43.5,33.32 C43.0735294,33.32 42.7323529,33.235 42.7323529,33.235 C42.7323529,33.235 43.3294118,34.255 43.4147059,34.85 C43.5,35.445 43.1588235,36.295 43.1588235,36.295 C43.1588235,36.295 42.2205882,36.125 41.3676471,35.36 C41.1970588,35.615 41.1117647,35.955 41.0264706,36.21 C40.9411765,36.465 40.6852941,36.89 40.6852941,36.89 C40.6852941,36.89 40.0029412,36.465 39.8323529,36.125 C39.4911765,35.615 39.7470588,34.34 39.7470588,34.34 C39.7470588,34.34 39.4911765,34.68 38.8088235,34.51 C38.2970588,34.425 37.5294118,34.085 37.5294118,34.085 C37.5294118,34.085 38.1264706,32.47 38.5529412,32.215 C38.9794118,31.96 39.8323529,31.705 39.8323529,31.705 C39.8323529,31.705 40.6852941,29.835 41.4529412,29.41 C42.3058824,28.985 42.3058824,28.985 42.3058824,28.985 C42.3058824,28.985 42.9029412,30.94 42.6470588,31.195 C42.3911765,31.79 42.1352941,31.96 42.1352941,31.96 Z"></path>
                                        <path d="M10.0647059,29.92 C10.0647059,29.92 8.87058824,30.175 8.7,30.94 C8.52941176,31.79 8.27352941,32.13 8.27352941,32.13 C8.27352941,32.13 9.46764706,32.13 9.72352941,31.875 C9.97941176,31.62 10.3205882,31.365 10.3205882,31.365 C10.3205882,31.365 10.4058824,32.555 10.7470588,32.98 C11.0029412,33.49 11.8558824,34 11.8558824,34 C11.8558824,34 12.5382353,33.32 12.7941176,32.215 C13.05,32.385 13.3058824,32.555 13.6470588,32.725 C13.9029412,32.895 14.3294118,33.065 14.3294118,33.065 C14.3294118,33.065 14.5,32.3 14.5,31.875 C14.5,31.28 13.5617647,30.43 13.5617647,30.43 C13.5617647,30.43 13.9029412,30.515 14.4147059,30.005 C14.7558824,29.58 15.1823529,28.985 15.1823529,28.985 C15.1823529,28.985 13.7323529,28.05 13.2205882,28.135 C12.7088235,28.22 11.8558824,28.475 11.8558824,28.475 C11.8558824,28.475 10.0647059,27.455 9.12647059,27.625 C8.27352941,27.795 8.27352941,27.795 8.27352941,27.795 C8.27352941,27.795 8.95588235,29.75 9.29705882,29.835 C9.72352941,29.835 10.0647059,29.92 10.0647059,29.92 Z"></path>
                                        <path d="M14.2441176,23.8 C14.2441176,23.8 13.05,23.63 12.6235294,24.395 C12.1970588,25.075 11.8558824,25.415 11.8558824,25.415 C11.8558824,25.415 12.9647059,25.755 13.3058824,25.585 C13.6470588,25.415 13.9882353,25.245 13.9882353,25.245 C13.9882353,25.245 13.7323529,26.35 13.9029412,26.945 C13.9882353,27.54 14.5852941,28.305 14.5852941,28.305 C14.5852941,28.305 15.4382353,27.795 16.0352941,26.86 C16.2058824,27.03 16.4617647,27.37 16.6323529,27.54 C16.8029412,27.795 17.2294118,28.05 17.2294118,28.05 C17.2294118,28.05 17.7411765,27.455 17.8264706,27.115 C17.9970588,26.52 17.3147059,25.415 17.3147059,25.415 C17.3147059,25.415 17.6558824,25.67 18.2529412,25.245 C18.7647059,24.99 19.3617647,24.48 19.3617647,24.48 C19.3617647,24.48 18.3382353,23.12 17.8264706,23.035 C17.3147059,22.95 16.4617647,22.95 16.4617647,22.95 C16.4617647,22.95 15.0970588,21.42 14.1588235,21.25 C13.3058824,21.25 13.3058824,21.25 13.3058824,21.25 C13.3058824,21.25 13.3058824,23.29 13.6470588,23.46 C13.9882353,23.715 14.2441176,23.8 14.2441176,23.8 Z"></path>
                                        <path d="M3.07058824,24.31 C3.07058824,24.31 2.13235294,23.545 1.36470588,23.97 C0.597058824,24.31 0.170588235,24.395 0.170588235,24.395 C0.170588235,24.395 0.938235294,25.245 1.27941176,25.33 C1.62058824,25.415 2.04705882,25.415 2.04705882,25.415 C2.04705882,25.415 1.19411765,26.265 1.02352941,26.775 C0.852941176,27.285 0.938235294,28.305 0.938235294,28.305 C0.938235294,28.305 1.87647059,28.39 2.9,27.88 C2.98529412,28.135 2.98529412,28.475 3.07058824,28.815 C3.15588235,29.07 3.24117647,29.58 3.24117647,29.58 C3.24117647,29.58 4.00882353,29.325 4.26470588,29.07 C4.69117647,28.645 4.77647059,27.37 4.77647059,27.37 C4.77647059,27.37 4.94705882,27.71 5.71470588,27.795 C6.31176471,27.795 6.99411765,27.71 6.99411765,27.71 C6.99411765,27.71 6.82352941,26.01 6.39705882,25.67 C6.05588235,25.33 5.28823529,24.82 5.28823529,24.82 C5.28823529,24.82 4.94705882,22.78 4.26470588,22.185 C3.58235294,21.59 3.58235294,21.59 3.58235294,21.59 C3.58235294,21.59 2.47352941,23.29 2.64411765,23.715 C2.81470588,24.14 3.07058824,24.31 3.07058824,24.31 Z"></path>
                                        <path d="M7.93235294,18.19 C7.93235294,18.19 7.93235294,17.255 7.33529412,17 C6.73823529,16.745 6.48235294,16.49 6.48235294,16.49 C6.48235294,16.49 6.31176471,17.34 6.48235294,17.68 C6.65294118,17.935 6.82352941,18.19 6.82352941,18.19 C6.82352941,18.19 5.88529412,18.105 5.45882353,18.275 C5.03235294,18.445 4.52058824,18.955 4.52058824,18.955 C4.52058824,18.955 4.94705882,19.55 5.8,19.975 C5.62941176,20.145 5.45882353,20.315 5.28823529,20.485 C5.11764706,20.655 4.94705882,20.995 4.94705882,20.995 C4.94705882,20.995 5.45882353,21.335 5.71470588,21.335 C6.14117647,21.42 6.99411765,20.825 6.99411765,20.825 C6.99411765,20.825 6.82352941,21.08 7.16470588,21.59 C7.42058824,21.93 7.84705882,22.355 7.84705882,22.355 C7.84705882,22.355 8.78529412,21.42 8.78529412,20.995 C8.78529412,20.57 8.7,19.89 8.7,19.89 C8.7,19.89 9.80882353,18.7 9.80882353,18.02 C9.80882353,17.34 9.80882353,17.34 9.80882353,17.34 C9.80882353,17.34 8.18823529,17.51 8.10294118,17.85 C8.01764706,17.935 7.93235294,18.19 7.93235294,18.19 Z"></path>
                                        <path d="M7.67647059,13.09 C7.67647059,13.09 6.65294118,12.41 5.97058824,12.835 C5.28823529,13.26 4.86176471,13.345 4.86176471,13.345 C4.86176471,13.345 5.62941176,14.195 6.05588235,14.195 C6.48235294,14.195 6.82352941,14.28 6.82352941,14.28 C6.82352941,14.28 6.05588235,15.13 5.88529412,15.725 C5.71470588,16.235 5.88529412,17.255 5.88529412,17.255 C5.88529412,17.255 6.82352941,17.255 7.84705882,16.66 C7.93235294,16.915 8.01764706,17.255 8.10294118,17.595 C8.18823529,17.85 8.35882353,18.36 8.35882353,18.36 C8.35882353,18.36 9.04117647,18.105 9.29705882,17.765 C9.72352941,17.34 9.72352941,16.065 9.72352941,16.065 C9.72352941,16.065 9.89411765,16.405 10.6617647,16.405 C11.2588235,16.405 11.9411765,16.235 11.9411765,16.235 C11.9411765,16.235 11.6852941,14.535 11.2588235,14.28 C10.8323529,13.94 10.0647059,13.515 10.0647059,13.515 C10.0647059,13.515 9.55294118,11.475 8.87058824,10.965 C8.10294118,10.455 8.10294118,10.455 8.10294118,10.455 C8.10294118,10.455 7.16470588,12.24 7.33529412,12.58 C7.50588235,12.835 7.67647059,13.09 7.67647059,13.09 Z"></path>
                                        <path d="M15.6941176,14.79 C15.6941176,14.79 16.2058824,13.855 15.7794118,13.26 C15.3529412,12.665 15.1823529,12.325 15.1823529,12.325 C15.1823529,12.325 14.5,13.175 14.5,13.515 C14.5,13.855 14.5,14.195 14.5,14.195 C14.5,14.195 13.6470588,13.6 13.1352941,13.515 C12.6235294,13.43 11.7705882,13.685 11.7705882,13.685 C11.7705882,13.685 11.8558824,14.535 12.4529412,15.385 C12.1970588,15.47 11.9411765,15.555 11.6852941,15.64 C11.4294118,15.725 11.0882353,15.895 11.0882353,15.895 C11.0882353,15.895 11.4294118,16.49 11.6852941,16.745 C12.1117647,17.085 13.3058824,16.915 13.3058824,16.915 C13.3058824,16.915 12.9647059,17.085 13.05,17.765 C13.1352941,18.275 13.3058824,18.955 13.3058824,18.955 C13.3058824,18.955 14.8411765,18.53 15.0117647,18.105 C15.2676471,17.68 15.5235294,16.915 15.5235294,16.915 C15.5235294,16.915 17.3147059,16.32 17.7411765,15.555 C18.1676471,14.875 18.1676471,14.875 18.1676471,14.875 C18.1676471,14.875 16.4617647,14.195 16.1205882,14.45 C15.8647059,14.535 15.6941176,14.79 15.6941176,14.79 Z"></path>
                                        <path d="M13.2205882,6.97 C13.2205882,6.97 12.7088235,5.865 13.2205882,5.27 C13.7323529,4.59 13.9029412,4.25 13.9029412,4.25 C13.9029412,4.25 14.5852941,5.185 14.5852941,5.525 C14.5852941,5.95 14.5,6.29 14.5,6.29 C14.5,6.29 15.5235294,5.695 16.0352941,5.61 C16.6323529,5.525 17.4852941,5.78 17.4852941,5.78 C17.4852941,5.78 17.3147059,6.715 16.6323529,7.65 C16.8882353,7.735 17.2294118,7.905 17.4852941,7.99 C17.7411765,8.075 18.1676471,8.33 18.1676471,8.33 C18.1676471,8.33 17.7411765,9.01 17.4852941,9.18 C17.0588235,9.605 15.7794118,9.35 15.7794118,9.35 C15.7794118,9.35 16.1205882,9.605 15.95,10.285 C15.8647059,10.795 15.6088235,11.56 15.6088235,11.56 C15.6088235,11.56 13.9882353,11.05 13.7323529,10.625 C13.5617647,10.2 13.2205882,9.35 13.2205882,9.35 C13.2205882,9.35 11.2588235,8.585 10.8323529,7.82 C10.4058824,7.055 10.4058824,7.055 10.4058824,7.055 C10.4058824,7.055 12.3676471,6.375 12.6235294,6.63 C12.8794118,6.885 13.2205882,6.97 13.2205882,6.97 Z"></path>
                                        <path d="M22.4323529,3.655 C22.4323529,3.655 23.1147059,2.72 22.7735294,1.955 C22.3470588,1.19 22.3470588,0.765 22.3470588,0.765 C22.3470588,0.765 21.4941176,1.53 21.4088235,1.955 C21.3235294,2.295 21.3235294,2.72 21.3235294,2.72 C21.3235294,2.72 20.4705882,1.955 19.9588235,1.785 C19.4470588,1.615 18.4235294,1.7 18.4235294,1.7 C18.4235294,1.7 18.4235294,2.635 18.9352941,3.655 C18.6794118,3.74 18.3382353,3.74 17.9970588,3.825 C17.7411765,3.91 17.2294118,3.995 17.2294118,3.995 C17.2294118,3.995 17.4852941,4.675 17.7411765,5.015 C18.1676471,5.44 19.4470588,5.44 19.4470588,5.44 C19.4470588,5.44 19.1058824,5.61 19.0205882,6.375 C19.0205882,6.97 19.1058824,7.65 19.1058824,7.65 C19.1058824,7.65 20.8117647,7.395 21.1529412,7.055 C21.4941176,6.63 21.9205882,5.865 21.9205882,5.865 C21.9205882,5.865 23.9676471,5.44 24.5647059,4.76 C25.1617647,4.08 25.1617647,4.08 25.1617647,4.08 C25.1617647,4.08 23.3705882,3.06 23.0294118,3.23 C22.6882353,3.4 22.4323529,3.655 22.4323529,3.655 Z"></path>
                                        <path d="M30.3647059,12.155 C30.3647059,12.155 30.3647059,13.345 31.1323529,13.685 C31.9,14.025 32.2411765,14.28 32.2411765,14.28 C32.2411765,14.28 32.4970588,13.175 32.2411765,12.835 C32.0705882,12.495 31.8147059,12.155 31.8147059,12.155 C31.8147059,12.155 33.0088235,12.24 33.5205882,12.07 C34.0323529,11.9 34.7147059,11.22 34.7147059,11.22 C34.7147059,11.22 34.1176471,10.455 33.0941176,9.945 C33.2647059,9.69 33.5205882,9.435 33.6911765,9.265 C33.8617647,9.01 34.1176471,8.67 34.1176471,8.67 C34.1176471,8.67 33.4352941,8.245 33.0941176,8.245 C32.4970588,8.16 31.4735294,8.925 31.4735294,8.925 C31.4735294,8.925 31.6441176,8.585 31.2176471,7.99 C30.8764706,7.565 30.3647059,7.055 30.3647059,7.055 C30.3647059,7.055 29.1705882,8.245 29.1705882,8.755 C29.1705882,9.265 29.2558824,10.115 29.2558824,10.115 C29.2558824,10.115 27.8911765,11.645 27.8911765,12.58 C27.8911765,13.515 27.8911765,13.515 27.8911765,13.515 C27.8911765,13.515 29.9382353,13.26 30.1088235,12.92 C30.1941176,12.495 30.3647059,12.155 30.3647059,12.155 Z"></path>
                                        <path d="M35.9088235,8.84 C35.9088235,8.84 35.9088235,10.03 36.5911765,10.37 C37.3588235,10.71 37.6147059,11.05 37.6147059,11.05 C37.6147059,11.05 37.8705882,9.945 37.7,9.605 C37.5294118,9.265 37.3588235,8.925 37.3588235,8.925 C37.3588235,8.925 38.5529412,9.095 39.0647059,8.925 C39.5764706,8.755 40.3441176,8.075 40.3441176,8.075 C40.3441176,8.075 39.8323529,7.31 38.8088235,6.8 C38.9794118,6.545 39.2352941,6.375 39.4911765,6.12 C39.6617647,5.95 40.0029412,5.525 40.0029412,5.525 C40.0029412,5.525 39.4058824,5.1 38.9794118,5.015 C38.3823529,4.93 37.3588235,5.61 37.3588235,5.61 C37.3588235,5.61 37.5294118,5.27 37.1029412,4.675 C36.7617647,4.25 36.25,3.655 36.25,3.655 C36.25,3.655 34.9705882,4.845 34.9705882,5.355 C34.9705882,5.865 34.9705882,6.715 34.9705882,6.715 C34.9705882,6.715 33.5205882,8.245 33.5205882,9.095 C33.4352941,10.03 33.4352941,10.03 33.4352941,10.03 C33.4352941,10.03 35.4823529,9.86 35.6529412,9.52 C35.8235294,9.18 35.9088235,8.84 35.9088235,8.84 Z"></path>
                                        <path d="M28.0617647,4.335 C28.0617647,4.335 27.3794118,3.4 27.8058824,2.635 C28.2323529,1.87 28.3176471,1.53 28.3176471,1.53 C28.3176471,1.53 29.1705882,2.295 29.1705882,2.72 C29.1705882,3.145 29.2558824,3.485 29.2558824,3.485 C29.2558824,3.485 30.1088235,2.72 30.7058824,2.55 C31.2176471,2.38 32.2411765,2.465 32.2411765,2.465 C32.2411765,2.465 32.2411765,3.4 31.7294118,4.42 C31.9852941,4.505 32.3264706,4.59 32.6676471,4.59 C32.9235294,4.675 33.4352941,4.845 33.4352941,4.845 C33.4352941,4.845 33.1794118,5.525 32.9235294,5.78 C32.4970588,6.205 31.2176471,6.205 31.2176471,6.205 C31.2176471,6.205 31.5588235,6.375 31.5588235,7.14 C31.5588235,7.735 31.3882353,8.415 31.3882353,8.415 C31.3882353,8.415 29.6823529,8.16 29.3411765,7.735 C29,7.31 28.5735294,6.545 28.5735294,6.545 C28.5735294,6.545 26.5264706,6.12 26.0147059,5.355 C25.5029412,4.675 25.5029412,4.675 25.5029412,4.675 C25.5029412,4.675 27.2941176,3.655 27.6352941,3.91 C27.7205882,4.165 28.0617647,4.335 28.0617647,4.335 Z"></path>
                                        <path d="M22.7735294,11.135 C22.7735294,11.135 23.7970588,10.54 23.7117647,9.69 C23.6264706,8.84 23.7117647,8.415 23.7117647,8.415 C23.7117647,8.415 22.6029412,8.84 22.4323529,9.18 C22.2617647,9.52 22.0911765,9.86 22.0911765,9.86 C22.0911765,9.86 21.5794118,8.84 21.1529412,8.415 C20.7264706,8.075 19.7882353,7.82 19.7882353,7.82 C19.7882353,7.82 19.4470588,8.67 19.5323529,9.86 C19.2764706,9.86 18.9352941,9.775 18.5941176,9.69 C18.3382353,9.605 17.8264706,9.605 17.8264706,9.605 C17.8264706,9.605 17.8264706,10.37 17.9117647,10.71 C18.1676471,11.22 19.2764706,11.73 19.2764706,11.73 C19.2764706,11.73 18.85,11.73 18.5941176,12.41 C18.3382353,12.92 18.1676471,13.685 18.1676471,13.685 C18.1676471,13.685 19.8735294,14.11 20.3,13.855 C20.7264706,13.6 21.4941176,13.09 21.4941176,13.09 C21.4941176,13.09 23.5411765,13.515 24.3088235,13.09 C25.0764706,12.665 25.0764706,12.665 25.0764706,12.665 C25.0764706,12.665 23.8823529,10.965 23.5411765,11.05 C23.2,11.135 22.7735294,11.135 22.7735294,11.135 Z"></path>
                                    </g>
                                </g>
                                <path d="M43.5,90.1 C26.1,90.1 11.9411765,72.59 11.9411765,51 C11.9411765,29.41 26.1,11.9 43.5,11.9 C60.9,11.9 75.0588235,29.41 75.0588235,51 C75.0588235,72.505 60.9,90.1 43.5,90.1 Z M43.5,12.75 C26.6117647,12.75 12.8794118,29.92 12.8794118,50.915 C12.8794118,71.995 26.6117647,89.08 43.5,89.08 C60.3882353,89.08 74.0352941,71.91 74.0352941,50.915 C74.1205882,29.92 60.3882353,12.75 43.5,12.75 Z" id="Shape" fill="#000000" fill-rule="nonzero"></path>
                                <g fill="#000000" fill-rule="nonzero" id="Shape">
                                    <path d="M86.7441176,50.915 C86.7441176,22.865 67.3823529,0 43.5,0 C19.6176471,0 0.255882353,22.865 0.255882353,50.915 C0.255882353,75.82 15.6941176,97.155 36.4205882,101.15 L36.4205882,101.15 C36.5058824,101.15 36.5911765,101.15 36.7617647,101.235 C37.1882353,101.32 37.5294118,101.405 37.9558824,101.405 C37.9558824,101.405 37.9558824,101.405 37.9558824,101.405 C39.8323529,101.745 41.5382353,101.915 43.5852941,101.915 C46.1441176,101.915 48.1058824,101.575 49.9823529,101.235 L49.9823529,101.235 C71.05,97.665 86.7441176,76.245 86.7441176,50.915 Z M48.2764706,100.64 C48.1911765,100.64 45.1205882,101.065 43.5,101.065 C41.8794118,101.065 40.0029412,100.895 38.1264706,100.555 C38.1264706,100.555 38.0411765,100.555 38.0411765,100.555 C16.9735294,97.325 1.19411765,75.99 1.19411765,50.915 C1.19411765,23.375 20.1294118,0.935 43.5,0.935 C66.8705882,0.935 85.8058824,23.375 85.8058824,50.915 C85.8058824,76.415 69.6852941,97.75 48.2764706,100.64 Z"></path>
                                    <path d="M43.5,3.57 C21.3235294,3.57 3.32647059,24.99 3.32647059,51.34 C3.32647059,74.12 16.9735294,93.84 35.6529412,98.175 C38.1264706,98.77 40.9411765,99.11 43.5,99.11 C45.9735294,99.11 48.7029412,98.685 51.0911765,98.175 C51.0911765,98.175 51.0911765,98.175 51.0911765,98.175 C51.1764706,98.175 51.1764706,98.175 51.2617647,98.175 C51.2617647,98.175 51.3470588,98.175 51.3470588,98.175 L51.3470588,98.175 C70.1117647,93.755 83.6735294,74.12 83.6735294,51.34 C83.6735294,24.99 65.6764706,3.57 43.5,3.57 Z M51.0911765,97.325 C48.7029412,97.835 45.9735294,98.26 43.5,98.26 C40.9411765,98.26 38.2970588,97.92 35.8235294,97.325 C17.5705882,92.99 4.26470588,73.695 4.26470588,51.34 C4.26470588,25.5 21.8352941,4.505 43.5,4.505 C65.1647059,4.505 82.7352941,25.5 82.7352941,51.34 C82.7352941,73.695 69.4294118,92.99 51.0911765,97.325 Z"></path>
                                </g>
                                <path d="M51.6029412,90.1 C51.4323529,90.015 51.3470588,90.015 51.1764706,90.015 L47.9352941,91.12 L49.0441176,89.335 C49.1294118,89.165 49.0441176,88.995 48.9588235,88.825 C48.8735294,88.655 48.7029412,88.655 48.5323529,88.655 C46.9970588,88.995 45.3764706,89.165 43.8411765,89.165 C43.8411765,89.165 43.8411765,89.165 43.7558824,89.165 L43.7558824,89.165 C43.7558824,89.165 43.7558824,89.165 43.7558824,89.165 C43.7558824,89.165 43.7558824,89.165 43.7558824,89.165 L43.7558824,89.165 C43.7558824,89.165 43.7558824,89.165 43.6705882,89.165 C42.1352941,89.165 40.5147059,88.995 38.9794118,88.655 C38.8088235,88.655 38.6382353,88.655 38.5529412,88.825 C38.4676471,88.995 38.3823529,89.165 38.4676471,89.335 L39.5764706,91.12 L36.3352941,90.015 C36.1647059,89.93 35.9941176,90.015 35.9088235,90.1 C35.7382353,90.185 35.7382353,90.355 35.7382353,90.525 L35.8235294,96.475 C35.8235294,96.645 35.9088235,96.815 36.0794118,96.9 C36.25,96.985 36.4205882,96.985 36.5911765,96.9 L39.7470588,95.455 L38.0411765,98.09 C37.9558824,98.26 38.0411765,98.345 38.0411765,98.515 C38.1264706,98.6 38.2117647,98.685 38.3823529,98.77 C38.4676471,98.77 40.7705882,99.11 43.7558824,99.11 L43.8411765,99.11 C46.8264706,99.025 49.1294118,98.6 49.2147059,98.6 C49.3852941,98.6 49.4705882,98.515 49.5558824,98.345 C49.6411765,98.26 49.6411765,98.09 49.5558824,97.92 L47.85,95.455 L51.0058824,96.9 C51.1764706,96.985 51.3470588,96.985 51.5176471,96.9 C51.6882353,96.815 51.7735294,96.645 51.7735294,96.475 L51.8588235,90.525 C51.8588235,90.355 51.7735294,90.185 51.6029412,90.1 Z M50.75,95.54 L47.7647059,94.18 C47.6794118,94.095 47.5088235,94.095 47.3382353,94.095 C47.1676471,94.18 47.0823529,94.265 46.9970588,94.35 L46.7411765,94.86 C46.7411765,94.945 46.7411765,95.115 46.7411765,95.2 L48.4470588,97.75 C47.5941176,97.92 45.8029412,98.175 43.7558824,98.175 C41.7088235,98.09 39.9176471,98.005 39.0647059,97.835 L40.6852941,95.2 C40.6852941,95.115 40.6852941,94.945 40.6852941,94.86 L40.4294118,94.35 C40.3441176,94.18 40.2588235,94.095 40.0882353,94.095 C39.9176471,94.095 39.8323529,94.095 39.6617647,94.18 L36.6764706,95.54 L36.5911765,91.375 L40.0882353,92.48 C40.2588235,92.565 40.4294118,92.48 40.6,92.395 C40.7705882,92.31 40.7705882,92.055 40.7705882,91.885 L39.7470588,89.76 C41.1117647,90.015 42.3911765,90.1 43.7558824,90.1 C43.7558824,90.1 43.8411765,90.1 43.9264706,90.1 C45.2911765,90.1 46.6558824,90.015 47.9352941,89.76 L46.8264706,91.97 C46.7411765,92.14 46.8264706,92.31 46.9970588,92.48 C47.1676471,92.565 47.3382353,92.65 47.5088235,92.565 L51.0058824,91.46 L50.75,95.54 Z" id="Shape" fill="#000000" fill-rule="nonzero"></path>
                            </g>
                            <g transform="translate(13.647059, 73.950000)" fill="#000000" fill-rule="nonzero">
                                <polygon id="Path" points="0.341176471 3.995 0 3.4 2.72941176 1.785 4.00882353 3.91 3.49705882 4.165 2.64411765 2.635 1.96176471 3.06 2.72941176 4.335 2.30294118 4.59 1.53529412 3.315"></polygon>
                                <path d="M5.20294118,5.44 C5.45882353,5.78 6.05588235,6.885 4.86176471,7.735 C3.66764706,8.585 2.81470588,7.735 2.55882353,7.395 C2.30294118,7.055 1.70588235,5.95 2.9,5.1 C4.09411765,4.25 4.94705882,5.1 5.20294118,5.44 M2.9,7.055 C3.15588235,7.395 3.66764706,7.65 4.35,7.14 C5.03235294,6.63 4.94705882,6.035 4.69117647,5.695 C4.43529412,5.355 3.92352941,5.1 3.24117647,5.61 C2.55882353,6.205 2.72941176,6.715 2.9,7.055" id="Shape"></path>
                                <path d="M6.73823529,10.71 C6.14117647,11.22 5.45882353,11.05 4.86176471,10.455 C4.69117647,10.2 4.35,9.86 4.43529412,9.35 C4.43529412,9.095 4.60588235,8.84 4.86176471,8.67 L6.39705882,7.31 L6.90882353,7.82 L5.37352941,9.18 C5.03235294,9.435 5.11764706,9.775 5.28823529,10.03 C5.62941176,10.37 5.88529412,10.37 6.22647059,10.115 L7.76176471,8.755 L8.27352941,9.265 L6.73823529,10.71 Z" id="Path"></path>
                                <polygon id="Path" points="10.3205882 11.22 10.8323529 11.645 8.7 14.025 8.10294118 13.515 8.61470588 10.88 8.61470588 10.88 7.07941176 12.58 6.56764706 12.07 8.7 9.775 9.29705882 10.285 8.78529412 12.835 8.78529412 12.835"></polygon>
                                <path d="M11.3441176,12.07 L12.5382353,13.005 C13.4764706,13.685 13.1352941,14.535 12.7941176,15.045 C12.3676471,15.555 11.6,16.235 10.6617647,15.555 L9.46764706,14.705 L11.3441176,12.07 Z M10.3205882,14.62 L10.9176471,15.045 C11.4294118,15.385 11.8558824,15.045 12.1970588,14.62 C12.7941176,13.855 12.3676471,13.515 12.1970588,13.345 L11.6,12.92 L10.3205882,14.62 Z" id="Shape"></path>
                                <polygon id="Path" points="16.0352941 15.895 14.4147059 14.96 14.0735294 15.555 15.5235294 16.405 15.2676471 16.83 13.8176471 15.98 13.3911765 16.66 15.0970588 17.68 14.7558824 18.19 12.5382353 16.83 14.0735294 14.11 16.2911765 15.385"></polygon>
                                <path d="M16.8882353,15.64 L18.2529412,16.235 C19.2764706,16.745 19.1911765,17.595 18.9352941,18.19 C18.6794118,18.785 17.9970588,19.55 16.9735294,19.125 L15.6088235,18.53 L16.8882353,15.64 Z M16.4617647,18.36 L17.1441176,18.615 C17.6558824,18.87 18.0823529,18.445 18.2529412,17.935 C18.5941176,17.085 18.2529412,16.83 17.9117647,16.66 L17.3147059,16.405 L16.4617647,18.36 Z" id="Shape"></path>
                                <polygon id="Path" points="44.3529412 18.445 43.7558824 18.7 42.7323529 16.32 42.6470588 16.32 43.1588235 18.955 42.5617647 19.295 40.8558824 17.085 40.8558824 17.085 41.9647059 19.55 41.3676471 19.805 40.0029412 16.915 41.0264706 16.49 42.5617647 18.53 42.5617647 18.53 42.1352941 15.98 43.0735294 15.555"></polygon>
                                <path d="M46.0588235,14.96 C45.8882353,14.79 45.6323529,14.62 45.1205882,14.875 C44.8647059,15.045 44.5235294,15.47 44.95,16.235 C45.2058824,16.745 45.7176471,17 46.2294118,16.745 C46.5705882,16.575 46.7411765,16.235 46.5705882,15.81 L47.1676471,15.47 C47.4235294,16.15 47.2529412,16.83 46.4852941,17.255 C45.7176471,17.765 44.8647059,17.595 44.2676471,16.66 C43.6705882,15.725 44.0117647,14.875 44.7794118,14.45 C45.6323529,13.94 46.4,14.28 46.6558824,14.62 L46.0588235,14.96 Z" id="Path"></path>
                                <polygon id="Path" points="51.0911765 13.94 50.5794118 14.365 48.9588235 12.24 48.9588235 12.24 50.0676471 14.79 49.4705882 15.215 47.3382353 13.515 47.3382353 13.515 48.9588235 15.555 48.4470588 15.98 46.4852941 13.515 47.3382353 12.835 49.3852941 14.45 49.3852941 14.45 48.3617647 12.07 49.1294118 11.475"></polygon>
                                <polygon id="Path" points="53.8205882 11.39 53.2235294 11.985 51.9441176 11.645 52.2 12.92 51.6029412 13.515 51.2617647 11.56 49.4705882 11.135 50.0676471 10.54 51.2617647 10.88 51.0058824 9.69 51.6029412 9.095 51.8588235 10.965"></polygon>
                                <polygon id="Path" points="56.1235294 8.755 55.5264706 9.35 54.3323529 9.18 54.6735294 10.37 54.0764706 11.05 53.65 9.18 51.7735294 8.925 52.2852941 8.245 53.4794118 8.5 53.1382353 7.31 53.65 6.715 54.1617647 8.5"></polygon>
                                <polygon id="Path" points="58.1705882 5.865 57.6588235 6.63 56.3794118 6.545 56.8911765 7.735 56.3794118 8.415 55.6970588 6.545 53.8205882 6.46 54.3323529 5.78 55.5264706 5.865 55.1 4.76 55.5264706 4.08 56.2088235 5.865"></polygon>
                                <polygon id="Rectangle" transform="translate(57.359663, 4.221066) rotate(-58.210826) translate(-57.359663, -4.221066) " points="57.3565681 2.64461943 57.357885 2.64462146 57.3627578 5.79751257 57.3614409 5.79751054"></polygon>
                                <polygon id="Path" points="57.5735294 0.595 57.9147059 0 60.1323529 2.465 59.7911765 3.06 56.4647059 2.635 56.8058824 1.955 59.2794118 2.38 59.2794118 2.38"></polygon>
                            </g>
                            <g transform="translate(5.970588, 5.950000)" fill="#000000" fill-rule="nonzero">
                                <path d="M6.14117647,57.29 L6.39705882,58.14 L5.62941176,58.735 L6.14117647,60.35 L7.16470588,60.435 L7.42058824,61.285 L2.98529412,60.945 L2.72941176,60.095 L6.14117647,57.29 Z M5.03235294,59.245 L3.75294118,60.265 L5.37352941,60.35 L5.03235294,59.245 Z" id="Shape"></path>
                                <polygon id="Path" points="6.14117647 56.95 2.04705882 57.8 1.79117647 56.525 4.43529412 55.25 1.45 55.08 1.19411765 53.805 5.28823529 52.955 5.45882353 53.72 2.21764706 54.4 5.62941176 54.57 5.8 55.335 2.72941176 56.78 5.97058824 56.1"></polygon>
                                <polygon id="Path" points="5.20294118 52.275 1.02352941 52.7 0.682352941 49.64 1.36470588 49.555 1.62058824 51.765 2.55882353 51.68 2.30294118 49.64 2.98529412 49.555 3.24117647 51.595 4.35 51.51 4.09411765 49.215 4.77647059 49.13"></polygon>
                                <path d="M4.77647059,48.45 L0.597058824,48.62 L0.511764706,46.835 C0.511764706,46.41 0.511764706,46.07 0.597058824,45.9 C0.682352941,45.73 0.767647059,45.56 1.02352941,45.39 C1.19411765,45.305 1.45,45.22 1.70588235,45.22 C2.04705882,45.22 2.30294118,45.305 2.47352941,45.475 C2.64411765,45.645 2.81470588,45.9 2.9,46.325 C2.98529412,46.155 3.07058824,45.985 3.24117647,45.9 C3.32647059,45.815 3.58235294,45.645 3.92352941,45.39 L4.69117647,44.88 L4.69117647,45.9 L3.83823529,46.495 C3.49705882,46.75 3.32647059,46.835 3.24117647,46.92 C3.15588235,47.005 3.07058824,47.09 3.07058824,47.175 C3.07058824,47.26 3.07058824,47.43 3.07058824,47.6 L3.07058824,47.77 L4.77647059,47.685 L4.77647059,48.45 Z M2.38823529,47.685 L2.38823529,47.09 C2.38823529,46.665 2.38823529,46.41 2.30294118,46.325 C2.30294118,46.24 2.21764706,46.155 2.13235294,46.07 C2.04705882,45.985 1.96176471,45.985 1.79117647,45.985 C1.62058824,45.985 1.53529412,46.07 1.45,46.07 C1.36470588,46.155 1.27941176,46.24 1.27941176,46.41 C1.27941176,46.495 1.27941176,46.665 1.27941176,47.005 L1.27941176,47.685 L2.38823529,47.685 Z" id="Shape"></path>
                                <polygon id="Path" points="4.69117647 44.37 0.511764706 44.2 0.511764706 43.35 4.69117647 43.435"></polygon>
                                <path d="M3.41176471,39.95 L3.75294118,39.185 C4.17941176,39.355 4.52058824,39.61 4.69117647,39.865 C4.86176471,40.205 4.94705882,40.545 4.94705882,40.97 C4.86176471,41.48 4.69117647,41.99 4.26470588,42.245 C3.83823529,42.585 3.32647059,42.67 2.64411765,42.67 C1.96176471,42.585 1.45,42.415 1.10882353,41.99 C0.767647059,41.565 0.597058824,41.14 0.682352941,40.545 C0.682352941,40.035 0.938235294,39.61 1.19411765,39.355 C1.45,39.27 1.70588235,39.1 2.04705882,39.015 L2.21764706,39.865 C1.96176471,39.865 1.79117647,39.95 1.70588235,40.12 C1.53529412,40.29 1.45,40.46 1.45,40.715 C1.45,41.055 1.53529412,41.31 1.70588235,41.48 C1.87647059,41.65 2.30294118,41.82 2.72941176,41.82 C3.24117647,41.905 3.66764706,41.82 3.83823529,41.65 C4.09411765,41.48 4.17941176,41.225 4.26470588,40.97 C4.26470588,40.715 4.26470588,40.545 4.09411765,40.375 C3.92352941,40.205 3.75294118,40.035 3.41176471,39.95 Z" id="Path"></path>
                                <path d="M5.71470588,34.935 L5.54411765,35.87 L4.52058824,36.04 L4.26470588,37.655 L5.11764706,38.165 L4.94705882,39.015 L1.10882353,36.72 L1.27941176,35.87 L5.71470588,34.935 Z M3.83823529,36.21 L2.21764706,36.55 L3.66764706,37.4 L3.83823529,36.21 Z" id="Shape"></path>
                                <polygon id="Path" points="5.8 34.595 1.79117647 33.575 1.96176471 32.81 5.11764706 31.875 2.38823529 31.195 2.55882353 30.43 6.56764706 31.45 6.39705882 32.3 3.41176471 33.15 6.05588235 33.83"></polygon>
                                <path d="M3.49705882,27.54 L4.09411765,26.01 C4.17941176,25.67 4.35,25.5 4.43529412,25.33 C4.52058824,25.16 4.60588235,25.075 4.77647059,24.99 C4.94705882,24.905 5.03235294,24.82 5.20294118,24.82 C5.37352941,24.82 5.54411765,24.82 5.71470588,24.905 C5.88529412,24.99 6.05588235,25.075 6.14117647,25.245 C6.22647059,25.415 6.31176471,25.585 6.31176471,25.755 C6.48235294,25.585 6.65294118,25.415 6.90882353,25.33 C7.16470588,25.245 7.33529412,25.245 7.59117647,25.33 C7.76176471,25.415 7.93235294,25.5 8.01764706,25.67 C8.18823529,25.84 8.27352941,26.01 8.27352941,26.18 C8.35882353,26.35 8.27352941,26.52 8.27352941,26.775 C8.27352941,26.945 8.10294118,27.2 7.93235294,27.71 L7.42058824,29.07 L3.49705882,27.54 Z M4.43529412,27.03 L5.37352941,27.37 L5.54411765,26.86 C5.62941176,26.52 5.71470588,26.35 5.71470588,26.265 C5.71470588,26.095 5.71470588,26.01 5.71470588,25.925 C5.62941176,25.84 5.54411765,25.755 5.45882353,25.67 C5.37352941,25.585 5.20294118,25.585 5.11764706,25.67 C5.03235294,25.67 4.94705882,25.755 4.86176471,25.925 C4.86176471,26.01 4.69117647,26.18 4.60588235,26.605 L4.43529412,27.03 Z M5.97058824,27.625 L6.99411765,28.05 L7.25,27.285 C7.33529412,27.03 7.42058824,26.86 7.42058824,26.775 C7.42058824,26.69 7.42058824,26.52 7.33529412,26.435 C7.25,26.35 7.16470588,26.265 7.07941176,26.18 C6.99411765,26.095 6.82352941,26.095 6.73823529,26.18 C6.65294118,26.18 6.56764706,26.265 6.48235294,26.35 C6.39705882,26.435 6.31176471,26.69 6.14117647,27.03 L5.97058824,27.625 Z" id="Shape"></path>
                                <path d="M6.99411765,24.48 C6.65294118,24.31 6.31176471,24.055 6.14117647,23.8 C5.97058824,23.63 5.88529412,23.46 5.8,23.205 C5.71470588,22.95 5.71470588,22.78 5.71470588,22.525 C5.71470588,22.27 5.8,21.93 5.97058824,21.675 C6.22647059,21.165 6.65294118,20.74 7.16470588,20.655 C7.67647059,20.485 8.18823529,20.57 8.87058824,20.91 C9.46764706,21.25 9.89411765,21.59 10.0647059,22.1 C10.2352941,22.61 10.15,23.12 9.89411765,23.63 C9.63823529,24.14 9.21176471,24.565 8.7,24.65 C8.18823529,24.905 7.59117647,24.82 6.99411765,24.48 Z M7.33529412,23.715 C7.76176471,23.97 8.10294118,23.97 8.44411765,23.885 C8.78529412,23.8 8.95588235,23.63 9.12647059,23.29 C9.29705882,22.95 9.29705882,22.695 9.21176471,22.355 C9.12647059,22.015 8.78529412,21.76 8.35882353,21.59 C7.93235294,21.335 7.59117647,21.335 7.25,21.42 C6.90882353,21.505 6.73823529,21.675 6.56764706,22.015 C6.39705882,22.355 6.39705882,22.61 6.48235294,22.95 C6.65294118,23.29 6.90882353,23.545 7.33529412,23.715 Z" id="Shape"></path>
                                <path d="M13.05,18.19 L12.5382353,18.955 L11.5147059,18.785 L10.5764706,20.145 L11.1735294,20.91 L10.6617647,21.675 L8.01764706,18.02 L8.52941176,17.255 L13.05,18.19 Z M10.8323529,18.615 L9.21176471,18.275 L10.2352941,19.55 L10.8323529,18.615 Z" id="Shape"></path>
                                <path d="M13.2205882,17.935 L9.97941176,15.3 L11.0882353,13.94 C11.3441176,13.6 11.6,13.345 11.7705882,13.26 C11.9411765,13.175 12.1970588,13.09 12.3676471,13.175 C12.6235294,13.175 12.7941176,13.26 12.9647059,13.43 C13.2205882,13.6 13.3911765,13.855 13.3911765,14.11 C13.4764706,14.365 13.3911765,14.705 13.1352941,14.96 C13.3058824,14.875 13.4764706,14.875 13.7323529,14.79 C13.9029412,14.79 14.1588235,14.79 14.5852941,14.875 L15.5235294,14.96 L14.9264706,15.725 L13.8176471,15.64 C13.3911765,15.64 13.1352941,15.555 13.05,15.64 C12.9647059,15.64 12.7941176,15.64 12.7941176,15.725 C12.7088235,15.81 12.6235294,15.895 12.4529412,16.065 L12.4529412,16.15 L13.8176471,17.255 L13.2205882,17.935 Z M11.9411765,15.81 L12.3676471,15.3 C12.6235294,14.96 12.7941176,14.79 12.7941176,14.705 C12.7941176,14.62 12.7941176,14.535 12.7941176,14.45 C12.7941176,14.365 12.7088235,14.28 12.6235294,14.195 C12.5382353,14.11 12.3676471,14.025 12.2823529,14.11 C12.1970588,14.11 12.0264706,14.195 11.9411765,14.28 C11.8558824,14.365 11.7705882,14.45 11.5147059,14.79 L11.0882353,15.13 L11.9411765,15.81 Z" id="Shape"></path>
                                <path d="M12.8794118,11.815 L13.9882353,10.71 C14.2441176,10.455 14.4147059,10.285 14.5852941,10.2 C14.8411765,10.115 15.0117647,10.03 15.2676471,10.03 C15.5235294,10.03 15.7794118,10.115 16.0352941,10.2 C16.2911765,10.285 16.5470588,10.54 16.8029412,10.795 C17.0588235,11.05 17.2294118,11.305 17.3147059,11.475 C17.4852941,11.73 17.4852941,12.07 17.4852941,12.325 C17.4852941,12.495 17.4,12.75 17.3147059,13.005 C17.2294118,13.175 17.0588235,13.345 16.8882353,13.6 L15.7794118,14.705 L12.8794118,11.815 Z M13.9882353,11.73 L15.95,13.685 L16.3764706,13.26 C16.5470588,13.09 16.6323529,13.005 16.7176471,12.835 C16.8029412,12.75 16.8029412,12.58 16.8029412,12.495 C16.8029412,12.41 16.8029412,12.24 16.7176471,12.07 C16.6323529,11.9 16.4617647,11.73 16.2058824,11.475 C15.95,11.22 15.7794118,11.05 15.6088235,10.965 C15.4382353,10.88 15.2676471,10.88 15.1823529,10.88 C15.0117647,10.88 14.9264706,10.965 14.7558824,11.05 C14.6705882,11.135 14.5,11.305 14.2441176,11.475 L13.9882353,11.73 Z" id="Shape"></path>
                                <path d="M18.6794118,9.35 C18.4235294,9.01 18.2529412,8.67 18.2529412,8.33 C18.1676471,8.075 18.1676471,7.905 18.2529412,7.65 C18.2529412,7.395 18.3382353,7.225 18.5088235,7.055 C18.6794118,6.8 18.85,6.63 19.1911765,6.375 C19.7029412,6.035 20.2147059,5.865 20.7264706,6.035 C21.2382353,6.12 21.6647059,6.46 22.0911765,7.055 C22.4323529,7.65 22.6029412,8.16 22.5176471,8.67 C22.4323529,9.18 22.1764706,9.605 21.6647059,9.945 C21.1529412,10.285 20.6411765,10.455 20.1294118,10.285 C19.5323529,10.2 19.1058824,9.86 18.6794118,9.35 Z M19.4470588,8.84 C19.7029412,9.265 20.0441176,9.435 20.3,9.52 C20.6411765,9.605 20.8970588,9.52 21.1529412,9.35 C21.4088235,9.18 21.5794118,8.925 21.6647059,8.585 C21.6647059,8.245 21.5794118,7.905 21.3235294,7.48 C21.0676471,7.055 20.7264706,6.885 20.4705882,6.8 C20.1294118,6.715 19.8735294,6.8 19.6176471,6.97 C19.3617647,7.14 19.1911765,7.395 19.1058824,7.735 C19.0205882,8.075 19.1058824,8.415 19.4470588,8.84 Z" id="Shape"></path>
                                <polygon id="Path" points="23.7117647 8.5 21.8352941 4.76 24.3941176 3.485 24.7352941 4.08 22.9441176 5.015 23.3705882 5.865 24.9058824 5.1 25.2470588 5.695 23.7117647 6.46 24.5647059 8.075"></polygon>
                                <path d="M27.4647059,4.42 C27.3794118,3.995 27.2941176,3.655 27.3794118,3.315 C27.3794118,3.06 27.4647059,2.89 27.6352941,2.635 C27.7205882,2.465 27.8911765,2.295 28.0617647,2.125 C28.3176471,1.955 28.5735294,1.785 28.9147059,1.7 C29.5117647,1.53 30.0235294,1.615 30.5352941,1.87 C30.9617647,2.125 31.3029412,2.55 31.4735294,3.23 C31.6441176,3.91 31.6441176,4.42 31.3882353,4.93 C31.1323529,5.355 30.7058824,5.695 30.1088235,5.865 C29.5117647,6.035 29,6.035 28.4882353,5.695 C27.9764706,5.525 27.6352941,5.1 27.4647059,4.42 Z M28.3176471,4.165 C28.4882353,4.59 28.6588235,4.93 28.9147059,5.1 C29.1705882,5.27 29.5117647,5.355 29.8529412,5.185 C30.1941176,5.1 30.3647059,4.93 30.5352941,4.59 C30.7058824,4.335 30.7058824,3.91 30.5352941,3.485 C30.3647059,3.06 30.1941176,2.72 29.9382353,2.55 C29.6823529,2.38 29.3411765,2.38 29,2.465 C28.6588235,2.55 28.4029412,2.72 28.3176471,3.06 C28.1470588,3.315 28.1470588,3.655 28.3176471,4.165 Z" id="Shape"></path>
                                <path d="M32.4970588,5.185 L31.9,1.02 L33.6911765,0.85 C34.1176471,0.765 34.4588235,0.765 34.6294118,0.85 C34.8,0.935 35.0558824,1.02 35.1411765,1.19 C35.3117647,1.36 35.3970588,1.53 35.3970588,1.785 C35.4823529,2.125 35.3970588,2.38 35.2264706,2.55 C35.0558824,2.805 34.8,2.975 34.4588235,3.06 C34.6294118,3.145 34.8,3.23 34.9705882,3.315 C35.1411765,3.4 35.3117647,3.655 35.5676471,3.91 L36.1647059,4.675 L35.1411765,4.845 L34.3735294,3.995 C34.1176471,3.74 33.9470588,3.485 33.8617647,3.485 C33.7764706,3.4 33.6911765,3.4 33.6058824,3.315 C33.5205882,3.315 33.35,3.315 33.1794118,3.315 L33.0088235,3.315 L33.2647059,5.015 L32.4970588,5.185 Z M33.0088235,2.72 L33.6058824,2.635 C34.0323529,2.55 34.2882353,2.55 34.3735294,2.465 C34.4588235,2.38 34.5441176,2.38 34.5441176,2.295 C34.6294118,2.21 34.6294118,2.125 34.5441176,1.955 C34.5441176,1.785 34.4588235,1.7 34.3735294,1.615 C34.2882353,1.53 34.2029412,1.53 34.0323529,1.53 C33.9470588,1.53 33.7764706,1.53 33.4352941,1.615 L32.8382353,1.7 L33.0088235,2.72 Z" id="Shape"></path>
                                <polygon id="Path" points="37.4441176 4.76 37.5294118 1.275 36.25 1.275 36.25 0.595 39.5764706 0.68 39.5764706 1.36 38.2970588 1.36 38.2117647 4.845"></polygon>
                                <polygon id="Path" points="39.9176471 4.76 40.6 0.68 41.4529412 0.85 41.1970588 2.465 42.8176471 2.72 43.0735294 1.105 43.9264706 1.275 43.2441176 5.355 42.3911765 5.185 42.6470588 3.4 41.0264706 3.145 40.7705882 4.93"></polygon>
                                <path d="M44.4382353,3.485 C44.6088235,3.06 44.6941176,2.72 44.95,2.55 C45.1205882,2.38 45.2911765,2.21 45.4617647,2.125 C45.6323529,2.04 45.8882353,1.955 46.0588235,1.955 C46.3147059,1.955 46.6558824,1.955 46.9970588,2.04 C47.5941176,2.21 48.0205882,2.55 48.2764706,3.06 C48.5323529,3.57 48.5323529,4.08 48.3617647,4.76 C48.1911765,5.44 47.85,5.865 47.3382353,6.12 C46.9117647,6.375 46.3147059,6.375 45.8029412,6.205 C45.2058824,6.035 44.7794118,5.695 44.5235294,5.185 C44.2676471,4.675 44.1823529,4.08 44.4382353,3.485 Z M45.2911765,3.74 C45.1205882,4.165 45.1205882,4.59 45.2911765,4.845 C45.4617647,5.185 45.6323529,5.355 45.9735294,5.44 C46.3147059,5.525 46.5705882,5.525 46.9117647,5.355 C47.1676471,5.185 47.4235294,4.845 47.5088235,4.42 C47.6794118,3.995 47.6794118,3.57 47.5088235,3.315 C47.3382353,3.06 47.1676471,2.805 46.8264706,2.72 C46.4852941,2.635 46.2294118,2.635 45.8882353,2.805 C45.6323529,2.975 45.3764706,3.23 45.2911765,3.74 Z" id="Shape"></path>
                                <path d="M48.1058824,6.885 L49.8970588,3.145 L51.0911765,3.74 C51.5176471,3.995 51.8588235,4.165 51.9441176,4.25 C52.1147059,4.42 52.2852941,4.59 52.2852941,4.845 C52.3705882,5.1 52.2852941,5.355 52.1147059,5.695 C52.0294118,5.95 51.8588235,6.12 51.6882353,6.205 C51.5176471,6.29 51.3470588,6.375 51.1764706,6.46 C51.0058824,6.46 50.8352941,6.46 50.6647059,6.46 C50.4941176,6.375 50.1529412,6.29 49.8117647,6.12 L49.3,5.865 L48.6176471,7.31 L48.1058824,6.885 Z M50.4088235,4.165 L49.8970588,5.27 L50.3235294,5.44 C50.6647059,5.61 50.8352941,5.695 50.9205882,5.695 C51.0058824,5.695 51.1764706,5.695 51.2617647,5.61 C51.3470588,5.525 51.4323529,5.44 51.5176471,5.355 C51.6029412,5.185 51.6029412,5.1 51.6029412,4.93 C51.6029412,4.76 51.5176471,4.675 51.3470588,4.59 C51.2617647,4.505 51.0911765,4.42 50.8352941,4.335 L50.4088235,4.165 Z" id="Shape"></path>
                                <path d="M54.3323529,10.37 L53.5647059,9.86 L53.7352941,8.84 L52.3705882,7.905 L51.6029412,8.5 L50.8352941,7.99 L54.4176471,5.355 L55.1852941,5.865 L54.3323529,10.37 Z M53.9058824,8.16 L54.2470588,6.545 L52.9676471,7.565 L53.9058824,8.16 Z" id="Shape"></path>
                                <polygon id="Path" points="54.5882353 10.625 57.2323529 7.395 59.6205882 9.35 59.1941176 9.86 57.4882353 8.415 56.8911765 9.095 58.5117647 10.455 58 11.05 56.3794118 9.69 55.6970588 10.54 57.4882353 11.985 57.0617647 12.495"></polygon>
                                <path d="M60.4735294,10.115 L61.5823529,11.22 C61.8382353,11.475 62.0088235,11.645 62.0941176,11.815 C62.1794118,12.07 62.2647059,12.24 62.2647059,12.495 C62.2647059,12.75 62.1794118,13.005 62.0941176,13.26 C61.9235294,13.515 61.7529412,13.77 61.4970588,14.025 C61.2411765,14.28 60.9852941,14.45 60.7294118,14.535 C60.4735294,14.705 60.1323529,14.705 59.8764706,14.705 C59.7058824,14.705 59.45,14.62 59.1941176,14.535 C59.0235294,14.45 58.8529412,14.28 58.5970588,14.025 L57.4882353,12.92 L60.4735294,10.115 Z M60.5588235,11.22 L58.5970588,13.09 L59.0235294,13.515 C59.1941176,13.685 59.2794118,13.77 59.3647059,13.855 C59.45,13.94 59.6205882,13.94 59.7058824,13.94 C59.7911765,13.94 59.9617647,13.94 60.1323529,13.855 C60.3029412,13.77 60.4735294,13.6 60.7294118,13.43 C60.9852941,13.175 61.1558824,13.005 61.2411765,12.835 C61.3264706,12.665 61.3264706,12.495 61.3264706,12.41 C61.3264706,12.24 61.2411765,12.155 61.1558824,11.985 C61.0705882,11.9 60.9,11.73 60.7294118,11.475 L60.5588235,11.22 Z" id="Shape"></path>
                                <polygon id="Path" points="60.3029412 16.065 63.5441176 13.43 64.0558824 14.11 60.8147059 16.745"></polygon>
                                <path d="M64.0558824,18.53 L64.3117647,19.38 C63.8852941,19.55 63.4588235,19.55 63.1176471,19.465 C62.7764706,19.38 62.4352941,19.125 62.1794118,18.785 C61.8382353,18.36 61.7529412,17.85 61.8382353,17.34 C61.9235294,16.83 62.2647059,16.405 62.7764706,15.98 C63.3735294,15.555 63.8852941,15.385 64.3970588,15.47 C64.9088235,15.555 65.3352941,15.81 65.6764706,16.32 C65.9323529,16.745 66.1029412,17.17 66.0176471,17.595 C66.0176471,17.85 65.8470588,18.105 65.6764706,18.36 L64.9941176,17.765 C65.1647059,17.595 65.25,17.425 65.25,17.255 C65.25,17.085 65.1647059,16.83 65.0794118,16.66 C64.9088235,16.405 64.6529412,16.235 64.3970588,16.235 C64.1411765,16.235 63.7147059,16.32 63.3735294,16.66 C62.9470588,17 62.6911765,17.255 62.6058824,17.51 C62.5205882,17.765 62.6058824,18.02 62.7764706,18.275 C62.9470588,18.445 63.0323529,18.615 63.2882353,18.615 C63.5441176,18.615 63.8,18.615 64.0558824,18.53 Z" id="Path"></path>
                                <path d="M65.5058824,21.165 L65.9323529,21.845 C65.6764706,22.015 65.5911765,22.185 65.5058824,22.355 C65.4205882,22.525 65.5058824,22.78 65.5911765,22.95 C65.6764706,23.205 65.8470588,23.375 66.0176471,23.375 C66.1882353,23.46 66.3588235,23.46 66.4441176,23.375 C66.5294118,23.29 66.6147059,23.29 66.6147059,23.205 C66.6147059,23.12 66.6147059,23.035 66.6147059,22.865 C66.6147059,22.78 66.5294118,22.525 66.4441176,22.185 C66.5294118,21.845 66.5294118,21.505 66.5294118,21.25 C66.6147059,20.91 66.7852941,20.655 67.1264706,20.485 C67.2970588,20.4 67.5529412,20.315 67.7235294,20.4 C67.9794118,20.4 68.15,20.485 68.3205882,20.655 C68.4911765,20.825 68.6617647,20.995 68.8323529,21.335 C69.0882353,21.76 69.1735294,22.185 69.0882353,22.525 C69.0029412,22.865 68.8323529,23.12 68.4911765,23.29 L68.0647059,22.525 C68.2352941,22.355 68.3205882,22.27 68.4058824,22.1 C68.4058824,21.93 68.4058824,21.76 68.3205882,21.59 C68.2352941,21.335 68.0647059,21.25 67.8941176,21.165 C67.8088235,21.08 67.7235294,21.08 67.6382353,21.165 C67.4676471,21.25 67.3823529,21.335 67.3823529,21.42 C67.3823529,21.59 67.3823529,21.845 67.4676471,22.27 C67.5529412,22.695 67.6382353,22.95 67.6382353,23.205 C67.6382353,23.46 67.5529412,23.63 67.4676471,23.8 C67.3823529,23.97 67.2117647,24.14 66.9558824,24.225 C66.7852941,24.31 66.5294118,24.395 66.2735294,24.395 C66.0176471,24.395 65.7617647,24.31 65.5911765,24.14 C65.4205882,23.97 65.1647059,23.715 64.9941176,23.375 C64.7382353,22.95 64.6529412,22.525 64.7382353,22.1 C64.9088235,21.76 65.1647059,21.42 65.5058824,21.165 Z" id="Path"></path>
                                <path d="M70.0264706,23.8 L70.3676471,24.565 L68.2352941,25.415 C67.8941176,25.585 67.7235294,25.67 67.6382353,25.67 C67.4676471,25.755 67.3823529,25.925 67.3823529,26.095 C67.2970588,26.265 67.3823529,26.435 67.4676471,26.69 C67.5529412,26.945 67.6382353,27.03 67.8088235,27.115 C67.9794118,27.2 68.0647059,27.2 68.2352941,27.2 C68.4058824,27.2 68.5764706,27.115 68.9176471,26.945 L71.05,26.095 L71.3911765,26.86 L69.3441176,27.71 C68.9176471,27.88 68.5764706,28.05 68.3205882,28.05 C68.15,28.05 67.8941176,28.05 67.7235294,28.05 C67.5529412,27.965 67.3823529,27.88 67.2117647,27.71 C67.0411765,27.54 66.9558824,27.285 66.7852941,27.03 C66.6147059,26.69 66.5294118,26.35 66.5294118,26.18 C66.5294118,25.925 66.6147059,25.755 66.7,25.585 C66.7852941,25.415 66.8705882,25.33 67.0411765,25.16 C67.2117647,24.99 67.5529412,24.82 67.9794118,24.65 L70.0264706,23.8 Z" id="Path"></path>
                                <path d="M67.7235294,29.155 L71.7323529,27.965 L72.2441176,29.665 C72.4147059,30.09 72.4147059,30.43 72.4147059,30.6 C72.4147059,30.855 72.3294118,31.025 72.1588235,31.195 C71.9882353,31.365 71.8176471,31.45 71.5617647,31.535 C71.2205882,31.62 70.9647059,31.62 70.7088235,31.535 C70.4529412,31.45 70.2823529,31.195 70.1117647,30.855 C70.0264706,31.025 70.0264706,31.195 69.9411765,31.365 C69.8558824,31.535 69.6852941,31.705 69.4294118,32.045 L68.8323529,32.81 L68.5764706,31.875 L69.2588235,31.025 C69.5147059,30.685 69.6852941,30.515 69.6852941,30.43 C69.7705882,30.345 69.7705882,30.26 69.7705882,30.175 C69.7705882,30.09 69.7705882,29.92 69.6852941,29.75 L69.6,29.58 L67.8941176,30.09 L67.7235294,29.155 Z M70.2823529,29.325 L70.4529412,29.92 C70.5382353,30.345 70.6235294,30.515 70.7088235,30.6 C70.7941176,30.685 70.8794118,30.77 70.9647059,30.77 C71.05,30.77 71.1352941,30.77 71.3058824,30.77 C71.4764706,30.77 71.5617647,30.685 71.5617647,30.6 C71.5617647,30.515 71.6470588,30.345 71.6470588,30.26 C71.6470588,30.175 71.5617647,30.005 71.4764706,29.665 L71.3058824,29.07 L70.2823529,29.325 Z" id="Shape"></path>
                                <path d="M70.7941176,34.68 L71.4764706,34.51 L71.8176471,36.295 L70.1970588,36.635 C70.0264706,36.465 69.7705882,36.295 69.6,35.955 C69.4294118,35.615 69.2588235,35.36 69.1735294,35.02 C69.0882353,34.595 69.0882353,34.17 69.1735294,33.83 C69.2588235,33.49 69.5147059,33.15 69.7705882,32.98 C70.1117647,32.725 70.4529412,32.555 70.7941176,32.47 C71.2205882,32.385 71.6470588,32.385 71.9882353,32.47 C72.3294118,32.555 72.6705882,32.81 72.9264706,33.065 C73.0970588,33.32 73.2676471,33.575 73.3529412,34 C73.4382353,34.51 73.4382353,34.935 73.2676471,35.275 C73.0970588,35.615 72.8411765,35.87 72.5,36.04 L72.1588235,35.275 C72.3294118,35.19 72.5,35.02 72.5852941,34.85 C72.6705882,34.68 72.6705882,34.425 72.6705882,34.255 C72.5852941,33.915 72.4147059,33.66 72.1588235,33.49 C71.9029412,33.32 71.5617647,33.32 71.05,33.405 C70.5382353,33.49 70.1970588,33.66 70.0264706,34 C69.9411765,34.255 69.8558824,34.51 69.9411765,34.85 C69.9411765,35.02 70.0264706,35.19 70.1117647,35.36 C70.1970588,35.53 70.3676471,35.615 70.4529412,35.785 L70.9647059,35.7 L70.7941176,34.68 Z" id="Path"></path>
                                <polygon id="Path" points="69.7705882 37.485 73.95 36.975 74.3764706 40.035 73.6941176 40.12 73.3529412 37.91 72.4147059 37.995 72.6705882 40.035 71.9882353 40.12 71.7323529 38.08 70.5382353 38.25 70.7941176 40.545 70.1117647 40.63"></polygon>
                                <path d="M70.1970588,41.31 L74.3764706,41.14 L74.4617647,42.925 C74.4617647,43.35 74.4617647,43.69 74.3764706,43.86 C74.2911765,44.03 74.2058824,44.2 74.0352941,44.37 C73.8647059,44.54 73.6088235,44.54 73.3529412,44.54 C73.0117647,44.54 72.7558824,44.455 72.5852941,44.285 C72.4147059,44.115 72.2441176,43.86 72.1588235,43.52 C72.0735294,43.69 71.9882353,43.86 71.8176471,43.945 C71.7323529,44.03 71.4764706,44.2 71.1352941,44.455 L70.3676471,45.05 L70.2823529,44.03 L71.1352941,43.35 C71.4764706,43.095 71.6470588,42.925 71.7323529,42.84 C71.8176471,42.755 71.9029412,42.67 71.9029412,42.585 C71.9029412,42.5 71.9029412,42.33 71.9029412,42.16 L71.9029412,41.99 L70.1970588,42.075 L70.1970588,41.31 Z M72.6705882,41.99 L72.6705882,42.585 C72.6705882,43.01 72.7558824,43.265 72.7558824,43.35 C72.7558824,43.435 72.8411765,43.52 72.9264706,43.605 C73.0117647,43.69 73.0970588,43.69 73.2676471,43.69 C73.4382353,43.69 73.5235294,43.605 73.6088235,43.52 C73.6941176,43.435 73.7794118,43.35 73.7794118,43.18 C73.7794118,43.095 73.7794118,42.925 73.7794118,42.585 L73.7794118,41.905 L72.6705882,41.99 Z" id="Shape"></path>
                                <polygon id="Path" points="70.3676471 46.24 72.1588235 46.325 74.6323529 44.88 74.6323529 45.9 72.9264706 46.835 74.5470588 47.855 74.5470588 48.79 72.1588235 47.175 70.3676471 47.09"></polygon>
                                <path d="M71.05,48.365 L70.9647059,49.13 L70.3676471,49.13 C70.1117647,49.13 69.9411765,49.045 69.8558824,49.045 C69.6852941,48.96 69.6,48.875 69.5147059,48.79 C69.4294118,48.705 69.3441176,48.535 69.2588235,48.365 L69.6,48.195 C69.6,48.365 69.6852941,48.45 69.7705882,48.535 C69.8558824,48.62 69.9411765,48.62 70.1117647,48.705 L70.1117647,48.28 L71.05,48.365 Z" id="Path"></path>
                                <polygon id="Path" points="69.9411765 51.51 74.1205882 52.105 74.0352941 52.955 69.8558824 52.36"></polygon>
                                <polygon id="Path" points="69.7705882 53.125 73.8647059 53.89 73.6941176 54.655 70.6235294 55.76 73.3529412 56.27 73.1823529 57.035 69.0882353 56.355 69.2588235 55.505 72.2441176 54.4 69.6 53.89"></polygon>
                                <path d="M69.6,60.095 L69.0882353,60.775 C68.6617647,60.52 68.4058824,60.265 68.3205882,59.925 C68.15,59.585 68.15,59.16 68.3205882,58.735 C68.4911765,58.225 68.7470588,57.8 69.2588235,57.545 C69.6852941,57.29 70.2823529,57.29 70.8794118,57.46 C71.5617647,57.63 71.9882353,57.97 72.2441176,58.395 C72.5,58.82 72.5852941,59.33 72.4147059,59.925 C72.2441176,60.435 71.9882353,60.775 71.6470588,61.03 C71.3911765,61.2 71.1352941,61.2 70.7941176,61.2 L70.7941176,60.35 C71.05,60.35 71.2205882,60.35 71.3911765,60.18 C71.5617647,60.095 71.6470588,59.925 71.7323529,59.67 C71.8176471,59.415 71.8176471,59.075 71.6470588,58.82 C71.4764706,58.565 71.1352941,58.395 70.7088235,58.225 C70.1970588,58.055 69.8558824,58.055 69.5147059,58.225 C69.3441176,58.48 69.0882353,58.65 69.0882353,58.99 C69.0029412,59.245 69.0029412,59.415 69.1735294,59.585 C69.1735294,59.755 69.3441176,59.925 69.6,60.095 Z" id="Path"></path>
                            </g>
                        </g>
                    </g>
                </g>
            </g>
        </g>
    </g>
</svg>