
<svg width="40px" height="41px" viewBox="0 0 40 41" version="1.1" xmlns="http://www.w3.org/2000/svg" xmlns:xlink="http://www.w3.org/1999/xlink">
    <defs>
        <filter x="-0.8%" y="-1.9%" width="101.6%" height="103.8%" filterUnits="objectBoundingBox" id="filter-1">
            <feOffset dx="0" dy="2" in="SourceAlpha" result="shadowOffsetOuter1"></feOffset>
            <feGaussianBlur stdDeviation="2" in="shadowOffsetOuter1" result="shadowBlurOuter1"></feGaussianBlur>
            <feColorMatrix values="0 0 0 0 0   0 0 0 0 0   0 0 0 0 0  0 0 0 0 0" type="matrix" in="shadowBlurOuter1" result="shadowMatrixOuter1"></feColorMatrix>
            <feMerge>
                <feMergeNode in="shadowMatrixOuter1"></feMergeNode>
                <feMergeNode in="SourceGraphic"></feMergeNode>
            </feMerge>
        </filter>
    </defs>
    <g id="Page-1" stroke="none" stroke-width="1" fill="none" fill-rule="evenodd">
        <g id="Homepage" transform="translate(-1301.000000, -665.000000)" fill="#FFFFFF" fill-rule="nonzero">
            <g id="Circle" filter="url(#filter-1)" transform="translate(-50.000000, 106.000000)">
                <g id="Social" transform="translate(42.000000, 0.111811)">
                    <g id="instagram-brands" transform="translate(1309.000000, 559.000000)">
                        <path d="M20.0044618,9.72915951 C14.3290574,9.72915951 9.75125488,14.3007728 9.75125488,19.9685039 C9.75125488,25.6362351 14.3290574,30.2078484 20.0044618,30.2078484 C25.6798661,30.2078484 30.2576687,25.6362351 30.2576687,19.9685039 C30.2576687,14.3007728 25.6798661,9.72915951 20.0044618,9.72915951 Z M20.0044618,26.6254145 C16.3368656,26.6254145 13.3385388,23.640053 13.3385388,19.9685039 C13.3385388,16.2969548 16.327942,13.3115933 20.0044618,13.3115933 C23.6809816,13.3115933 26.6703848,16.2969548 26.6703848,19.9685039 C26.6703848,23.640053 23.672058,26.6254145 20.0044618,26.6254145 L20.0044618,26.6254145 Z M33.0686001,9.31031775 C33.0686001,10.6381353 31.9977691,11.698607 30.6770775,11.698607 C29.3474624,11.698607 28.2855549,10.6292237 28.2855549,9.31031775 C28.2855549,7.99141176 29.3563859,6.92202853 30.6770775,6.92202853 C31.9977691,6.92202853 33.0686001,7.99141176 33.0686001,9.31031775 Z M39.8594534,11.7342531 C39.7077524,8.5350149 38.9760178,5.70114934 36.6291132,3.36632929 C34.2911322,1.03150924 31.45343,0.300764033 28.2498606,0.140356549 C24.9481316,-0.0467855163 15.0518684,-0.0467855163 11.7501394,0.140356549 C8.55549359,0.291852506 5.71779141,1.02259771 3.37088678,3.35741777 C1.02398215,5.69223782 0.301171221,8.52610338 0.14054657,11.7253415 C-0.0468488567,15.0226065 -0.0468488567,24.9054898 0.14054657,28.2027548 C0.29224763,31.401993 1.02398215,34.2358585 3.37088678,36.5706786 C5.71779141,38.9054986 8.54656999,39.6362438 11.7501394,39.7966513 C15.0518684,39.9837934 24.9481316,39.9837934 28.2498606,39.7966513 C31.45343,39.6451554 34.2911322,38.9144102 36.6291132,36.5706786 C38.9670943,34.2358585 39.6988288,31.401993 39.8594534,28.2027548 C40.0468489,24.9054898 40.0468489,15.031518 39.8594534,11.7342531 Z M35.5939766,31.740631 C34.8979364,33.4872903 33.5504741,34.8329308 31.7925265,35.5369415 C29.1600669,36.5795901 22.9135527,36.3389789 20.0044618,36.3389789 C17.0953709,36.3389789 10.8399331,36.5706786 8.2163971,35.5369415 C6.46737312,34.8418424 5.11991076,33.4962018 4.41494702,31.740631 C3.37088678,29.1117306 3.61182376,22.8736617 3.61182376,19.9685039 C3.61182376,17.0633462 3.37981037,10.8163658 4.41494702,8.19637688 C5.11098717,6.44971761 6.45844953,5.10407704 8.2163971,4.40006641 C10.8488567,3.35741777 17.0953709,3.59802899 20.0044618,3.59802899 C22.9135527,3.59802899 29.1689905,3.36632929 31.7925265,4.40006641 C33.5415505,5.09516551 34.8890128,6.44080608 35.5939766,8.19637688 C36.6380368,10.8252773 36.3970998,17.0633462 36.3970998,19.9685039 C36.3970998,22.8736617 36.6380368,29.1206421 35.5939766,31.740631 Z" id="Shape"></path>
                    </g>
                </g>
            </g>
        </g>
    </g>
</svg>